<svg width="680" height="485" viewBox="0 0 680 485" fill="none" xmlns="http://www.w3.org/2000/svg">
<rect width="680" height="485" rx="40" fill="url(#paint0_linear_254_866)"/>
<path d="M254.285 97.628C174.016 303.754 75.3668 287.398 87.5115 395.036C96.4686 474.336 161.461 451.561 237.01 454.535C312.558 457.509 538.755 454.786 538.755 454.786C538.755 454.786 509.778 341.599 568.115 227.986C677.609 14.6634 308.951 -42.7493 254.285 97.628Z" fill="#EDE4DD"/>
<path d="M225.769 443.189C225.769 443.189 315.13 391.907 333.715 378.113C352.92 363.862 402.138 357.525 443.699 369.37C485.259 381.215 555.546 407.375 574.952 426.101C585.871 436.624 584.561 443.207 584.561 443.207L225.769 443.189Z" fill="#565697"/>
<path d="M415.965 365.146L437.603 371.648C437.603 371.648 393.484 407.85 378.254 415.418C362.134 423.433 344.122 429.852 329.456 422.033C311.658 412.544 337.215 386.137 337.215 386.137L415.965 365.146Z" fill="#1D1E40"/>
<path d="M322.219 347.304C322.219 347.304 335.804 355.941 334.051 396.367C332.299 436.792 424.461 371.835 424.461 371.835C424.461 371.835 404.203 366.043 399.524 312.139C394.845 258.236 391.396 277.826 391.396 277.826C391.396 277.826 315.41 337.385 322.219 347.304Z" fill="#EFB6AB"/>
<path opacity="0.64" d="M385.72 280.206C385.72 280.206 393.521 361.029 333.716 378.113C331.525 366.542 331.94 360.014 326.795 354.409C333.086 318.742 385.72 280.206 385.72 280.206Z" fill="#EFB6AB"/>
<path d="M393.372 272.03C393.372 272.03 386.899 319.835 404.268 317.827C421.637 315.818 437.454 233.833 438.316 226.924C439.178 220.016 445.074 174.581 443.368 170.239C441.662 165.897 380.281 145.529 279.292 157.228C228.351 161.574 230.951 174.155 230.951 174.155C230.951 174.155 247.975 236.404 255.464 245.856C262.953 255.308 393.372 272.03 393.372 272.03Z" fill="#A16D4B"/>
<path d="M596.562 426.261H83.4429V464.078H596.562V426.261Z" fill="#989CB7"/>
<path d="M248.096 175.496C248.096 175.496 246.698 255.103 264.976 301.997C283.253 348.892 301.522 354.409 301.522 354.409C301.522 354.409 309.151 357.717 326.813 354.409C347.845 350.475 378.3 326.501 391.41 278.207C391.41 278.207 420.933 282.585 424.312 246.762C426.563 222.926 405.013 221.435 395.012 225.365C388.134 228.064 381.67 235.887 377.937 240.325C370.238 249.475 369.161 233.192 371.832 212.509C374.232 194.002 351.019 183.255 351.019 183.255" fill="#EFB6AB"/>
<path d="M410.009 241.107C392.766 235.091 385.72 256.036 385.72 256.036C385.72 256.036 395.255 246.231 402.744 253.584" stroke="#4C1C17" stroke-width="3.7" stroke-linecap="round" stroke-linejoin="round"/>
<path d="M296.27 219.389C296.428 215.377 306.056 211.461 314.445 211.909C322.834 212.358 326.66 215.235 329.116 217.509C331.134 219.389 329.582 223.127 324.782 220.835C319.487 218.296 315.032 216.718 307.538 218.392C299.746 220.135 296.125 222.985 296.27 219.389Z" fill="#E69766"/>
<path d="M270.559 233.92C270.559 233.92 260.483 287.38 261.993 293.492C263.181 298.333 267.119 304.596 277.47 303.672C287.821 302.747 290.677 298.753 290.677 298.753" stroke="#4C1C17" stroke-width="3.7" stroke-linecap="round" stroke-linejoin="round"/>
<path d="M295.193 312.584C295.193 312.584 308.951 317.964 315.233 303.754L295.193 312.584Z" fill="#EFB6AB"/>
<path d="M295.193 312.584C295.193 312.584 308.951 317.964 315.233 303.754" stroke="#3A130D" stroke-width="9.25" stroke-linecap="round" stroke-linejoin="round"/>
<path d="M305.218 247.087C305.218 247.087 312.437 253.236 319.958 252.01C327.48 250.784 329.983 244.013 329.983 244.013" stroke="black" stroke-width="7.4" stroke-linecap="round" stroke-linejoin="round"/>
<path d="M253.302 245.865C253.302 245.865 255.278 251.03 258.964 251.03C263.158 251.03 265.922 247.009 265.922 247.009" stroke="black" stroke-width="7.4" stroke-linecap="round" stroke-linejoin="round"/>
<path d="M250.897 217.078C253.493 217.229 254.364 214.402 260.656 216.044C266.947 217.687 267.604 219.567 269.044 219.123C272.12 218.167 270.121 213.633 263.415 211.689C259.286 210.486 255.077 210.605 252.673 212.426C251.405 213.382 248.301 216.927 250.897 217.078Z" fill="#E69766"/>
<path d="M296.27 219.389C296.428 215.377 306.056 211.461 314.445 211.909C322.834 212.358 326.66 215.235 329.116 217.509C331.134 219.389 329.582 223.127 324.782 220.835C319.487 218.296 315.032 216.718 307.538 218.392C299.746 220.135 296.125 222.985 296.27 219.389Z" fill="#A16D4B"/>
<path d="M250.897 217.078C253.493 217.229 254.364 214.402 260.656 216.044C266.947 217.687 267.604 219.567 269.044 219.123C272.12 218.167 270.121 213.633 263.415 211.689C259.286 210.486 255.077 210.605 252.673 212.426C251.405 213.382 248.301 216.927 250.897 217.078Z" fill="#A16D4B"/>
<path d="M337.355 187.441C395.909 187.441 443.377 179.482 443.377 169.663C443.377 159.844 395.909 151.884 337.355 151.884C278.801 151.884 231.333 159.844 231.333 169.663C231.333 179.482 278.801 187.441 337.355 187.441Z" fill="#A16D4B"/>
<path opacity="0.62" d="M444.403 170.07C444.403 179.898 397.035 187.456 338.483 187.456C279.931 187.456 232.461 179.495 232.461 169.677C232.461 159.859 279.931 151.894 338.483 151.894C397.035 151.894 444.403 160.248 444.403 170.07Z" fill="#A16D4B"/>
<path d="M385.03 296.859C385.03 296.859 371.454 345.323 322.209 355.137" stroke="#4C1C17" stroke-width="3.7" stroke-linecap="round" stroke-linejoin="round"/>
<path d="M466.865 229.527L543.97 452.81" stroke="black" stroke-width="5.55" stroke-linecap="round" stroke-linejoin="round"/>
<path d="M447.334 259.458H477.607" stroke="black" stroke-width="5.55" stroke-miterlimit="10"/>
<path d="M455.555 283.751H484.719" stroke="black" stroke-width="5.55" stroke-miterlimit="10"/>
<path d="M464.833 311.293H495.881" stroke="black" stroke-width="5.55" stroke-miterlimit="10"/>
<path d="M473.865 338.629H504.912" stroke="black" stroke-width="5.55" stroke-miterlimit="10"/>
<path d="M483.647 365.097H514.699" stroke="black" stroke-width="5.55" stroke-miterlimit="10"/>
<path d="M492.697 392.313H523.749" stroke="black" stroke-width="5.55" stroke-miterlimit="10"/>
<path d="M455.555 283.751L447.334 434.175" stroke="black" stroke-width="5.55" stroke-linecap="round" stroke-linejoin="round"/>
<path d="M282.228 453.807V454.05C282.225 454.25 282.181 454.448 282.099 454.632C282.018 454.816 281.9 454.983 281.753 455.122C281.606 455.262 281.432 455.371 281.242 455.445C281.051 455.518 280.848 455.554 280.644 455.55L177.218 460.18L110.654 428.612V415.226L236.66 427.491L280.28 438.051C280.531 438.045 280.78 438.088 281.013 438.177C281.246 438.266 281.46 438.4 281.641 438.569C281.821 438.739 281.966 438.943 282.067 439.168C282.168 439.393 282.223 439.635 282.228 439.881C282.225 440.076 282.182 440.268 282.102 440.447C282.023 440.626 281.908 440.787 281.765 440.923C281.621 441.058 281.452 441.164 281.267 441.235C281.082 441.306 280.884 441.34 280.686 441.336H277.498V452.407H280.732C280.924 452.402 281.115 452.435 281.295 452.503C281.474 452.57 281.637 452.672 281.776 452.802C281.915 452.932 282.027 453.088 282.104 453.261C282.182 453.433 282.224 453.619 282.228 453.807Z" fill="#E69766"/>
<path d="M277.498 452.403L178.052 457.312V444.744L277.498 441.222V452.403Z" fill="white"/>
<path d="M199.083 448.619L277.069 445.613" stroke="#5B5B5B" stroke-width="1.85" stroke-linecap="round" stroke-linejoin="round"/>
<path d="M197.178 453.259L277 450.033" stroke="#5B5B5B" stroke-width="1.85" stroke-linecap="round" stroke-linejoin="round"/>
<path d="M112.164 427.496L178.052 457.312V444.744L112.164 417.893V427.496Z" fill="white"/>
<path d="M115.697 421.237L178.052 447.466" stroke="#5B5B5B" stroke-width="1.85" stroke-linecap="round" stroke-linejoin="round"/>
<path d="M134.925 431.915L178.052 451.13" stroke="#5B5B5B" stroke-width="1.85" stroke-linecap="round" stroke-linejoin="round"/>
<path d="M141.631 437.383L178.052 454.535" stroke="#5B5B5B" stroke-width="1.85" stroke-linecap="round" stroke-linejoin="round"/>
<path d="M275.205 433.59V433.956C275.205 435.2 274.334 436.211 273.248 436.211L156.209 442.525L114.369 416.506V392.716L219.184 393.86L272.801 409.804C274.129 409.804 275.196 411.048 275.196 412.549C275.196 413.757 274.343 414.74 273.299 414.74H269.366V431.444H273.337C274.371 431.43 275.205 432.405 275.205 433.59Z" fill="#E55558"/>
<path d="M269.38 431.476L157.7 436.925V417.352L269.38 414.607V431.476Z" fill="white"/>
<path d="M173.019 425.762L268.853 421.237" stroke="#5B5B5B" stroke-width="1.85" stroke-linecap="round" stroke-linejoin="round"/>
<path d="M170.684 432.752L268.765 427.894" stroke="#5B5B5B" stroke-width="1.85" stroke-linecap="round" stroke-linejoin="round"/>
<path d="M116.009 393.869L154.969 415.221" stroke="#93242A" stroke-width="1.39" stroke-linecap="round" stroke-linejoin="round"/>
<path d="M115.697 415.71L154.158 439.285" stroke="#93242A" stroke-width="1.39" stroke-linecap="round" stroke-linejoin="round"/>
<path d="M285.015 407.924V408.194C284.976 408.669 284.749 409.11 284.384 409.423C284.018 409.737 283.543 409.898 283.058 409.873L165.665 412.494L124.188 395.283L124.5 380.684L211.858 385.414L282.62 390.314C283.948 390.314 285.015 391.229 285.015 392.373C284.981 392.834 284.762 393.264 284.407 393.568C284.052 393.872 283.589 394.026 283.119 393.997H279.199V406.35H283.17C283.627 406.318 284.078 406.466 284.424 406.762C284.771 407.057 284.983 407.475 285.015 407.924Z" fill="#1D1E40"/>
<path d="M279.19 406.359L165.665 408.322V396.587L279.19 393.869V406.359Z" fill="white"/>
<path d="M183.612 399.945L279.19 397.557" stroke="#5B5B5B" stroke-width="1.85" stroke-linecap="round" stroke-linejoin="round"/>
<path d="M180.638 404.067L278.724 401.619" stroke="#5B5B5B" stroke-width="1.85" stroke-linecap="round" stroke-linejoin="round"/>
<path d="M125.833 383.09V393.42L165.665 408.321V396.586L125.833 383.09Z" fill="white"/>
<path d="M131.533 392.726L165.665 406.021" stroke="#5B5B5B" stroke-width="1.85" stroke-linecap="round" stroke-linejoin="round"/>
<path d="M138.929 392.726L165.665 402.841" stroke="#5B5B5B" stroke-width="1.85" stroke-linecap="round" stroke-linejoin="round"/>
<path d="M134.893 387.166L165.665 398.75" stroke="#5B5B5B" stroke-width="1.85" stroke-linecap="round" stroke-linejoin="round"/>
<path d="M272.474 390.181L154.279 391.128L112.779 376.57V353.123H200.556L271.318 360.731C272.647 360.731 273.714 362.163 273.714 363.934C273.714 365.306 272.861 366.455 271.817 366.455H267.898V385.67H271.868C275.284 386.228 275.121 389.797 272.474 390.181Z" fill="#FCCA5F"/>
<path d="M267.898 366.258H155.71V385.67H267.898V366.258Z" fill="white"/>
<path d="M212.799 371.222L267.422 371.995" stroke="#5B5B5B" stroke-width="1.85" stroke-linecap="round" stroke-linejoin="round"/>
<path d="M169.337 378.3H267.423" stroke="#5B5B5B" stroke-width="1.85" stroke-linecap="round" stroke-linejoin="round"/>
<path d="M114.532 354.395L153.245 365.544" stroke="#93242A" stroke-width="1.39" stroke-linecap="round" stroke-linejoin="round"/>
<path d="M114.532 375.253L151.539 388.1" stroke="#93242A" stroke-width="1.39" stroke-linecap="round" stroke-linejoin="round"/>
<path d="M207.384 382.316H267.889" stroke="#5B5B5B" stroke-width="1.85" stroke-linecap="round" stroke-linejoin="round"/>
<path d="M260.628 358.472V358.788C260.622 359.309 260.406 359.808 260.027 360.174C259.648 360.54 259.137 360.744 258.605 360.741H136.822L93.7935 349.807V332.197H184.786L258.13 337.912C258.783 337.905 259.412 338.154 259.878 338.603C260.345 339.051 260.611 339.663 260.619 340.304C260.619 340.558 260.569 340.808 260.469 341.042C260.37 341.276 260.225 341.488 260.041 341.666C259.858 341.844 259.64 341.984 259.401 342.079C259.161 342.174 258.905 342.22 258.647 342.217H254.579V356.656H258.689C259.191 356.648 259.675 356.834 260.037 357.174C260.4 357.514 260.612 357.98 260.628 358.472Z" fill="#565697"/>
<path d="M254.593 342.065H138.304V356.646H254.593V342.065Z" fill="white"/>
<path d="M189.768 346.371H254.863" stroke="#5B5B5B" stroke-width="1.85" stroke-linecap="round" stroke-linejoin="round"/>
<path d="M152.443 351.11H254.113" stroke="#5B5B5B" stroke-width="1.85" stroke-linecap="round" stroke-linejoin="round"/>
<path d="M95.6294 333.145L135.764 341.531" stroke="#1D1E40" stroke-width="1.85" stroke-linecap="round" stroke-linejoin="round"/>
<path d="M95.6294 348.818L133.988 358.463" stroke="#1D1E40" stroke-width="1.85" stroke-linecap="round" stroke-linejoin="round"/>
<path d="M168.107 326.671V337.912H179.198V332.289L188.281 337.912H212.799L190.49 326.552L168.107 326.671Z" fill="#9D4E49"/>
<path d="M168.107 326.638V337.875H179.198V332.257L188.281 337.875H212.799L190.49 326.52L168.107 326.638Z" fill="#9D4E49"/>
<path d="M204.542 328.391V337.911H214.198V332.106L225.564 337.911H249.639L229.227 328.391H204.542Z" fill="#9D4E49"/>
<path d="M168.107 335.743H178.882" stroke="#4C1C17" stroke-width="1.85" stroke-linecap="round" stroke-linejoin="round"/>
<path d="M185.033 335.743H204.541" stroke="#4C1C17" stroke-width="1.85" stroke-linecap="round" stroke-linejoin="round"/>
<path d="M214.193 335.743H204.542" stroke="#4C1C17" stroke-width="1.85" stroke-linecap="round" stroke-linejoin="round"/>
<path d="M244.503 335.743H221.789" stroke="#4C1C17" stroke-width="1.85" stroke-linecap="round" stroke-linejoin="round"/>
<path d="M160.087 206.016C160.087 206.016 163.423 300.94 161.485 311.27C159.546 321.601 157.001 327.915 157.001 327.915L197.966 328.491L185.061 267.258L175.414 223.882C172.305 221.99 169.482 219.68 167.026 217.019C163.989 213.83 161.625 210.082 160.068 205.993" fill="#55957C"/>
<path d="M160.087 205.916C160.087 205.916 163.423 300.835 161.485 311.17C159.546 321.506 157.001 327.815 157.001 327.815L197.975 328.391L185.061 267.158L175.414 223.782C172.307 221.897 169.483 219.595 167.026 216.942C163.989 213.752 161.625 210.005 160.068 205.916" fill="#E59666"/>
<path d="M164.794 219.193C164.794 219.193 188.095 324.287 197.97 328.491H235.537C235.537 328.491 215.582 301.53 207.058 265.108C204.541 254.348 197.97 224.848 197.97 224.848L162.086 202.37L164.794 219.193Z" fill="#FCC95F"/>
<path d="M186.678 227.986C186.678 227.986 193.231 256.713 196.069 267.259C201.703 288.231 213.633 322.169 224.627 328.492" stroke="white" stroke-width="1.39" stroke-linecap="round" stroke-linejoin="round"/>
<path d="M210.945 143.2C210.945 143.2 207.645 147.441 208.815 150.607C210.213 154.341 194.76 147.213 198.791 145.282C201.392 143.999 203.827 142.414 206.042 140.561L210.945 143.2Z" fill="#EFB6AB"/>
<path opacity="0.64" d="M206.368 136.484L209.066 146.472L213.694 137.72L206.368 136.484Z" fill="#EFB6AB"/>
<path d="M230.76 167.737C231.324 166.103 235.202 164.292 238.091 169.539C240.98 174.787 239.526 176.654 237.923 176.255C236.32 175.857 235.183 175.071 234.451 173.135C233.988 171.851 233.164 170.722 232.075 169.878C232.075 169.878 230.22 169.361 230.76 167.737Z" fill="#EFB6AB"/>
<path d="M208.601 151.436C208.601 151.436 224.599 147.012 229.409 143.278C234.218 139.545 244.788 120.925 248.777 118.825C252.766 116.725 255.856 116.862 260.801 119.74C265.745 122.617 267.749 130.885 261.602 137.829C255.455 144.774 242.234 154.638 242.234 154.638L213.694 173.126C213.694 173.126 215.624 162.242 208.601 151.436Z" fill="#E55558"/>
<path d="M188.948 150.027C188.948 150.027 182.577 155.357 180.82 170.194C179.101 184.925 161.196 196.917 159.383 196.51C157.57 196.102 159.071 229.697 193.035 225.831C212.953 223.544 207.058 206.012 207.058 206.012C207.058 206.012 218.014 207.266 226.408 192.941C233.64 180.588 234.745 178.699 235.514 175.492C236.367 171.909 232.755 166.021 224.469 168.135C221.528 168.89 215.111 175.871 215.111 175.871C215.512 174.915 215.479 156.926 208.587 151.44C205.054 151.44 204.518 150.621 200.44 148.59C195.766 146.257 188.948 150.027 188.948 150.027Z" fill="#E55558"/>
<path d="M205.054 139.252C205.054 139.252 208.354 145.31 215.568 142.579C221.412 139.28 220.993 135.181 221.915 132.856C222.863 132.422 223.773 131.912 224.637 131.333C224.821 131.209 224.959 131.029 225.03 130.821C225.102 130.613 225.103 130.388 225.033 130.18C224.791 129.434 223.877 128.217 222.68 126.977C222.423 121.602 220.405 119.337 220.405 119.337C220.405 119.337 214.459 113.691 209.221 120.641C203.982 127.591 205.054 139.252 205.054 139.252Z" fill="#EFB6AB"/>
<path d="M220.629 129.286C220.879 128.609 220.779 127.953 220.406 127.82C220.034 127.688 219.53 128.13 219.28 128.807C219.031 129.483 219.131 130.139 219.503 130.272C219.876 130.404 220.38 129.963 220.629 129.286Z" fill="black"/>
<path d="M217.944 127.123C217.944 127.123 218.779 124.868 220.643 124.836" stroke="#91461C" stroke-width="1.85" stroke-linecap="round" stroke-linejoin="round"/>
<path d="M218.765 133.804C218.765 133.804 219.296 135.396 220.41 135.071" stroke="#4C1C17" stroke-width="1.85" stroke-linecap="round" stroke-linejoin="round"/>
<path d="M213.489 122.379C213.489 122.379 217.637 137.253 203.964 146.54C190.29 155.828 183.062 146.81 182.405 143.905C181.748 141 181.198 137.084 184.903 134.453C188.608 131.822 192.583 125.376 192.583 121.016C192.583 116.656 206.396 113.627 209.16 111.989C211.923 110.351 224.264 102.409 227.643 110.388C231.641 119.831 222.773 121.954 219.03 121.954C215.288 121.954 214.617 120.906 213.489 122.379Z" fill="#9D4E49"/>
<path d="M215.745 108.887C215.745 108.887 220.228 107.245 221.85 110.717C223.626 114.496 221.244 119.273 213.308 121.309C213.308 121.309 220.326 117.383 217.367 113.073C215.037 109.697 207.99 112.932 207.99 112.932" stroke="#772220" stroke-width="1.39" stroke-linecap="round" stroke-linejoin="round"/>
<path d="M184.689 146.902C184.689 146.902 204.145 152.291 212.953 121.954C212.953 121.954 204.42 145.287 182.932 144.152" stroke="#772220" stroke-width="1.39" stroke-linecap="round" stroke-linejoin="round"/>
<path d="M193.282 167.736C193.282 167.736 195.738 174.21 193.282 185.364C190.826 196.518 199.308 206.062 207.058 206.025" stroke="#93242A" stroke-width="1.39" stroke-linecap="round" stroke-linejoin="round"/>
<path d="M203.936 150.873C208.152 156.435 210.248 163.271 209.859 170.194C209.393 178.561 209.393 182.048 209.393 182.048L214.72 176.278" stroke="#93242A" stroke-width="1.39" stroke-linecap="round" stroke-linejoin="round"/>
<path d="M205.077 192.612C205.272 188.726 206.796 185.019 209.402 182.089" stroke="#93242A" stroke-width="1.39" stroke-linecap="round" stroke-linejoin="round"/>
<path d="M220.643 155.128C220.643 155.128 224.45 154.24 235.029 137.152" stroke="#93242A" stroke-width="1.39" stroke-linecap="round" stroke-linejoin="round"/>
<path d="M212.017 155.128C214.238 160.328 215.324 165.928 215.204 171.566" stroke="#93242A" stroke-width="1.39" stroke-linecap="round" stroke-linejoin="round"/>
<path d="M421.637 165.376C421.637 165.376 443.54 131.978 448.103 117.672C452.665 103.365 457.754 93.9863 457.754 93.9863C457.754 93.9863 463.994 96.2739 466.669 112.657C469.344 129.041 460.331 152.3 460.331 152.3L451.658 174.174C451.658 174.174 424.638 170.07 421.637 165.376Z" fill="white"/>
<path d="M435.077 176.882C435.077 176.882 434.643 170.824 436.852 171.323C439.061 171.822 443.223 171.721 441.326 173.473C439.001 175.605 435.077 176.882 435.077 176.882Z" fill="#EFB6AB"/>
<path d="M464.064 85.8291L457.763 93.9865C457.763 93.9865 461.925 146.303 462.722 161.24C463.519 176.178 462.554 211.035 462.554 211.035C462.554 211.035 485.431 200.819 490.553 201.766C495.675 202.713 473.31 87.2565 473.31 87.2565L464.064 85.8291Z" fill="white"/>
<path d="M457.763 101.833C457.763 101.833 463.071 125.825 461.832 147.584" stroke="#1D1E40" stroke-width="1.39" stroke-linecap="round" stroke-linejoin="round"/>
<path d="M467.433 298.035L448.583 310.274L456.244 310.781L477.444 304.408L475.528 296.859L467.433 298.035Z" fill="#1D1E40"/>
<path opacity="0.76" d="M467.624 298.035L448.773 310.274L456.435 310.781L477.63 304.408L475.719 296.859L467.624 298.035Z" fill="#1D1E40"/>
<path d="M452.05 310.782L470.691 299.344C470.691 299.344 486.326 300.291 487.934 299.344C489.542 298.397 485.502 310.022 485.502 310.022L481.368 309.995L480.394 305.767L476.046 310.8H452.05V310.782Z" fill="#1D1E40"/>
<path d="M464.064 297.056C464.064 297.056 483.106 215.029 475.817 161.88C472.014 134.114 491.308 168.853 491.308 168.853L495.367 233.087L483.353 297.06C483.353 297.06 469.554 299.746 464.064 297.056Z" fill="#565697"/>
<path d="M468.002 90.1621L490.106 113.568C490.106 113.568 486.038 162.668 482.184 163.075C478.33 163.482 470.067 166.511 470.91 157.343C471.754 148.174 464.213 110.132 462.396 100.968C460.578 91.8046 461.585 92.5686 462.396 90.1713C462.368 90.1621 462.685 93.7902 468.002 90.1621Z" fill="#1D1E40"/>
<path d="M454.986 78.834C454.986 78.834 462.368 90.7658 463.747 91.8318C465.127 92.8978 470.332 88.5652 471.488 86.9319C472.644 85.2986 473.296 81.9542 473.296 81.9542C473.296 81.9542 464.763 76.8621 464.167 71.3034C463.57 65.7447 453.522 76.4961 454.986 78.834Z" fill="#EFB6AB"/>
<path d="M443.335 58.1773C443.335 58.1773 442.431 73.6594 449.366 78.4175C456.3 83.1756 461.538 75.7502 461.538 75.7502C461.538 75.7502 464.675 71.7333 465.733 68.9837C467.191 65.1681 461.45 52.6598 459.637 51.1775C457.824 49.6951 443.731 53.8264 443.335 58.1773Z" fill="#EFB6AB"/>
<path d="M443.922 65.4238C443.922 65.4238 440.162 70.5799 442.436 72.108C444.109 73.2335 445.577 71.6505 445.577 71.6505" fill="#EFB6AB"/>
<path d="M446.747 73.7824C446.747 73.7824 449.17 74.8621 449.375 71.9844L446.747 73.7824Z" fill="#EFB6AB"/>
<path d="M446.747 73.7824C446.747 73.7824 449.17 74.8621 449.375 71.9844" stroke="#3A130D" stroke-width="1.85" stroke-linecap="round" stroke-linejoin="round"/>
<path d="M444.91 62.8074C444.91 62.8074 446.238 61.4348 447.567 63.1276" stroke="#1D1E40" stroke-width="1.85" stroke-linecap="round" stroke-linejoin="round"/>
<path d="M446.516 66.0253C446.919 65.9099 447.093 65.3032 446.905 64.6701C446.717 64.037 446.238 63.6173 445.835 63.7326C445.432 63.8479 445.258 64.4546 445.447 65.0877C445.635 65.7208 446.114 66.1406 446.516 66.0253Z" fill="black"/>
<path d="M459.012 63.6353C459.012 63.6353 459.427 60.4693 462.023 61.1282C464.619 61.787 464.847 66.0784 462.023 67.3503C460.117 71.4678 465.504 73.4077 467.107 72.7672C468.622 72.1541 469.176 70.9371 468.566 68.9744C467.955 67.0117 466.287 61.5033 468.79 56.9557C471.292 52.408 467.83 47.8055 467.83 47.8055C467.83 47.8055 460.247 48.8029 452.987 45.8519C445.726 42.901 438.376 49.2101 438.223 53.1721C438.074 57.0701 439.798 59.289 444.472 59.4994C448.298 59.6779 450.68 57.4452 451.668 56.6812C452.343 56.1642 455.624 55.3086 456.281 58.7628C456.939 62.217 456.869 64.9117 459.012 63.6353Z" fill="#1D1E40"/>
<path d="M462.303 64.7198C462.129 64.5844 461.927 64.4887 461.711 64.4397C461.495 64.3907 461.27 64.3897 461.054 64.4365C460.837 64.4834 460.634 64.5771 460.459 64.7108C460.284 64.8445 460.142 65.0148 460.042 65.2093C460.042 65.2093 460.234 62.7525 461.524 62.7021" fill="#EFB6AB"/>
<path d="M462.303 64.7198C462.129 64.5844 461.927 64.4887 461.711 64.4397C461.495 64.3907 461.27 64.3897 461.054 64.4365C460.837 64.4834 460.634 64.5771 460.459 64.7108C460.284 64.8445 460.142 65.0148 460.042 65.2093C460.042 65.2093 460.234 62.7525 461.524 62.7021" stroke="#3A130D" stroke-width="1.39" stroke-linecap="round" stroke-linejoin="round"/>
<path opacity="0.64" d="M462.014 69.8896C462.014 69.8896 462.307 78.4954 459.385 80.8698C458.667 81.4556 457.765 81.779 456.831 81.7849C456.538 81.3274 455.61 79.8313 455.61 79.8313C455.61 79.8313 460.383 77.8915 462.014 69.8896Z" fill="#EFB6AB"/>
<path d="M484.994 218.484C484.994 218.484 478.656 264.051 474.536 280.444C470.416 296.836 468.976 299.659 468.976 299.659C468.976 299.659 481.181 302.171 490.097 299.659C495.381 298.168 514.698 213.579 514.698 213.579L484.994 218.484Z" fill="#565697"/>
<path d="M486.07 204.36C486.07 204.36 486.466 231.779 468.958 299.636" stroke="white" stroke-width="1.39" stroke-linecap="round" stroke-linejoin="round"/>
<path d="M472.29 81.3135L468.002 83.784L464.684 94.4623C464.684 94.4623 473.441 123.775 476.493 134.453C479.546 145.131 480.338 180.963 480.338 180.963V220.176C480.338 220.176 498.648 227.597 510.989 226.554C523.329 225.511 528.903 220.428 528.903 220.428C528.903 220.428 519.583 164.479 517.886 156.862C516.19 149.244 504.483 109.963 498.653 100.977C492.823 91.9917 485.903 85.5683 477.817 82.4801C476.034 81.8581 474.176 81.4659 472.29 81.3135Z" fill="white"/>
<path d="M484.994 161.881L487.753 183.796C487.753 183.796 493.396 189.743 504.301 182.881C502.325 171.923 500.62 165.349 500.62 165.349C500.62 165.349 493.792 168.972 484.994 161.881Z" stroke="#1D1E40" stroke-width="1.39" stroke-linecap="round" stroke-linejoin="round"/>
<path d="M437.594 231.243L514.699 454.535" stroke="black" stroke-width="5.55" stroke-linecap="round" stroke-linejoin="round"/>
<path d="M430.179 99.6133L433.223 103.557L432.631 108.365L427.243 109.889L424.13 106.545L424.708 101.164C424.708 101.164 419.582 104.898 422.182 110.539C424.415 115.397 430.268 114.949 432.207 114.093C434.145 113.238 437.603 111.316 437.23 106.599C436.895 102.239 433.647 100.277 430.179 99.6133Z" fill="#75778C"/>
<path d="M432.44 126.363L428.217 112.885C428.217 112.885 431.568 113.644 434.113 111.462C435.436 115.753 437.799 121.829 437.799 121.829C437.799 121.829 441.714 128.564 432.44 126.363Z" fill="#75778E"/>
<path d="M442.948 136.342L445.591 144.573L450.102 146.481L452.176 150.369L448.695 156.271L448.41 151.261L445.651 148.425L441.713 149.916L441.066 153.512L444.202 157.479L437.757 155.686L436.937 150.685L439.178 145.913L435.077 134.082" fill="#75778E"/>
<path d="M448.322 121.61C448.322 121.61 470.468 124.991 472.365 124.442C474.261 123.893 474.56 124.986 474.56 124.986C474.56 124.986 470.077 102.907 471.698 95.0699C473.32 87.2328 482.883 89.0719 489.38 98.4554C492.642 103.177 495.275 122.246 495.275 122.246C495.275 122.246 496.533 140.473 491.342 143.859C486.15 147.244 457.452 149.646 452.4 147.134C447.348 144.623 446.551 134.05 446.551 134.05C446.551 134.05 445.619 122.699 448.322 121.61Z" fill="white"/>
<path d="M484.253 128.559C484.253 128.559 477.77 122.712 474.466 124.597" stroke="#1D1E40" stroke-width="1.39" stroke-linecap="round" stroke-linejoin="round"/>
<path d="M450.761 146.124C452.207 145.951 452.709 140.396 451.882 133.717C451.055 127.037 449.213 121.762 447.766 121.935C446.32 122.107 445.818 127.662 446.645 134.342C447.472 141.021 449.315 146.296 450.761 146.124Z" fill="#565697"/>
<path d="M437.799 121.83C437.799 121.83 440.791 126.222 435.604 126.405C430.417 126.588 430.24 125.554 430.594 127.777C430.948 130.001 432.169 129.072 432.878 130.019C433.586 130.966 433.931 133.135 435.077 134.082C436.167 135.023 437.367 135.832 438.652 136.493C439.635 136.923 444.212 136.145 445.092 136.063C445.973 135.981 446.584 134.942 446.584 134.942L452.101 135.88C452.101 135.88 451.333 129.983 450.978 128.56C450.624 127.137 449.114 128.491 446.393 124.987C443.671 121.482 437.799 121.83 437.799 121.83Z" fill="#EFB6AB"/>
<path d="M492.828 105.071C492.828 105.071 497.912 124.671 494.482 137.586C492.301 145.776 478.46 147.002 478.46 147.002C478.46 147.002 466.101 149.212 450.754 146.146" stroke="#1D1E40" stroke-width="1.39" stroke-linecap="round" stroke-linejoin="round"/>
<path d="M447.758 121.953C447.758 121.953 472.28 123.596 474.536 124.986C477.156 126.628 479.328 128.872 480.865 131.524" stroke="#1D1E40" stroke-width="1.39" stroke-linecap="round" stroke-linejoin="round"/>
<path d="M473.287 107.121C473.287 107.121 473.553 120.091 474.536 124.987" stroke="#1D1E40" stroke-width="1.39" stroke-linecap="round" stroke-linejoin="round"/>
<path d="M281.567 113.545V110.489L278.221 108.965L277.815 106.472L280.611 103.727L279.577 101.233L275.849 101.796L273.873 99.8607L275.192 95.9261L272.726 94.1967L269.702 96.5666L267.236 95.4412L266.584 92.3027L263.229 91.8223L261.83 95.4412H259.113L257.058 92.7922L253.95 93.9177L254.267 97.6189L252.403 99.1516L249.052 98.0261L246.997 100.446L249.206 103.736L248.311 105.987L244.466 106.385L244.145 109.523L247.938 111.134V113.714L245.142 116.043L246.461 119.021L250.226 118.536L251.951 120.627L250.72 123.83L253.419 125.769L256.317 123.436L258.699 124.882L259.104 128.176H262.87L264.189 124.882H266.644L269.026 127.38L271.971 125.934L271.393 122.732L273.281 121.208L277.126 122.018L278.85 119.373L276.72 116.715L277.783 114.14L281.567 113.545ZM262.842 116.871C261.459 116.871 260.108 116.468 258.958 115.714C257.808 114.96 256.912 113.888 256.383 112.634C255.854 111.38 255.716 110.001 255.986 108.669C256.255 107.338 256.921 106.115 257.899 105.156C258.876 104.196 260.122 103.542 261.478 103.277C262.834 103.013 264.239 103.149 265.517 103.668C266.794 104.187 267.886 105.067 268.654 106.196C269.422 107.324 269.832 108.651 269.832 110.008C269.832 111.828 269.096 113.574 267.785 114.861C266.474 116.148 264.696 116.871 262.842 116.871Z" fill="#565697"/>
<path d="M257.147 112.35C257.147 112.35 254.43 117.063 257.361 119.021C260.293 120.979 263.019 118.733 264.217 117.52C265.414 116.308 265.06 114.821 263.713 113.732C262.366 112.643 257.916 110.557 257.147 112.35Z" fill="#EFB6AB"/>
<mask id="mask0_254_866" style="mask-type:luminance" maskUnits="userSpaceOnUse" x="269" y="123" width="149" height="65">
<path d="M272.092 158.673C272.092 158.673 323.202 128.404 368.444 123.285C396.21 120.146 428.189 156.683 414.726 175.857C406.906 187.002 369.316 186.352 339.993 187.459C314.142 188.434 267.413 183.854 269.198 183.566L272.092 158.673Z" fill="white"/>
</mask>
<g mask="url(#mask0_254_866)">
<path d="M327.457 151.32C323.065 151.32 318.771 152.599 315.119 154.995C311.467 157.39 308.621 160.795 306.94 164.779C305.26 168.763 304.82 173.146 305.678 177.375C306.535 181.604 308.65 185.489 311.756 188.537C314.862 191.586 318.82 193.662 323.128 194.503C327.435 195.343 331.901 194.911 335.958 193.26C340.016 191.609 343.484 188.814 345.923 185.229C348.363 181.643 349.664 177.428 349.663 173.116C349.664 170.253 349.09 167.418 347.974 164.773C346.858 162.128 345.222 159.725 343.16 157.701C341.098 155.677 338.65 154.072 335.955 152.977C333.261 151.882 330.373 151.319 327.457 151.32ZM327.741 184.33C325.482 184.33 323.274 183.672 321.395 182.44C319.517 181.208 318.053 179.456 317.188 177.407C316.324 175.358 316.097 173.104 316.538 170.928C316.979 168.753 318.067 166.755 319.664 165.187C321.262 163.619 323.297 162.551 325.513 162.118C327.728 161.685 330.025 161.907 332.112 162.756C334.2 163.605 335.983 165.042 337.239 166.886C338.494 168.73 339.164 170.898 339.164 173.116C339.164 174.589 338.869 176.047 338.295 177.408C337.722 178.769 336.88 180.005 335.819 181.047C334.759 182.088 333.499 182.914 332.113 183.477C330.727 184.041 329.241 184.33 327.741 184.33Z" fill="#A3A3A3"/>
</g>
<mask id="mask1_254_866" style="mask-type:luminance" maskUnits="userSpaceOnUse" x="269" y="123" width="149" height="65">
<path d="M272.092 158.673C272.092 158.673 323.202 128.404 368.444 123.285C396.21 120.146 428.189 156.683 414.726 175.857C406.906 187.002 369.316 186.352 339.993 187.459C314.142 188.434 267.413 183.854 269.198 183.566L272.092 158.673Z" fill="white"/>
</mask>
<g mask="url(#mask1_254_866)">
<path d="M364.478 172.023V167.219L358.741 165.389L357.721 162.114L361.174 157.182L358.844 153.357L353.517 154.071L350.199 150.676L351.648 146.293L347.659 142.61L342.039 145.584L338.161 143.136V138.374L333.235 137.253L329.922 142.057H325.863L322.134 136.727L317.572 137.912L316.537 144.038L313.368 145.442L308.037 141.906L303.997 144.454L305.576 150.539L302.412 153.929L297.37 152.941L294.336 157.035L298.213 161.958L296.633 166.076L291.013 166.913L290.435 171.863L295.762 174.503V179.078L291.866 181.915L292.886 186.718L299.229 187.144L301.382 190.401L298.651 195.356L301.676 199.881L307.58 197.186L311.192 200.869L310.176 205.531L315.363 207.654L319.683 203.687L324.003 204.685L325.448 209.489H330.346L332.648 203.829L336.842 203.262L341.135 207.947L345.371 205.966L344.593 199.739L348.078 197.186L353.55 199.735L356.919 195.91L354.123 190.96L356.919 186.298L363.215 187.121L364.478 182.313L359.161 179.055L359.888 174.48L364.478 172.023ZM327.741 197.507C322.825 197.508 318.019 196.079 313.93 193.399C309.842 190.719 306.655 186.909 304.773 182.451C302.89 177.993 302.397 173.087 303.355 168.353C304.312 163.62 306.679 159.271 310.154 155.858C313.63 152.445 318.058 150.12 322.879 149.178C327.701 148.236 332.698 148.719 337.24 150.565C341.782 152.412 345.664 155.539 348.396 159.551C351.127 163.564 352.585 168.282 352.585 173.108C352.586 176.312 351.945 179.485 350.697 182.445C349.449 185.406 347.619 188.096 345.312 190.363C343.005 192.629 340.266 194.428 337.251 195.655C334.236 196.882 331.005 197.514 327.741 197.516V197.507Z" fill="#565697"/>
</g>
<mask id="mask2_254_866" style="mask-type:luminance" maskUnits="userSpaceOnUse" x="269" y="123" width="149" height="65">
<path d="M272.092 158.673C272.092 158.673 323.202 128.404 368.444 123.285C396.21 120.146 428.189 156.683 414.726 175.857C406.906 187.002 369.316 186.352 339.993 187.459C314.142 188.434 267.413 183.854 269.198 183.566L272.092 158.673Z" fill="white"/>
</mask>
<g mask="url(#mask2_254_866)">
<path d="M327.457 151.32C323.065 151.32 318.771 152.599 315.119 154.995C311.467 157.39 308.621 160.795 306.94 164.779C305.26 168.763 304.82 173.146 305.678 177.375C306.535 181.604 308.65 185.489 311.756 188.537C314.862 191.586 318.82 193.662 323.128 194.503C327.435 195.343 331.901 194.911 335.958 193.26C340.016 191.609 343.484 188.814 345.923 185.229C348.363 181.643 349.664 177.428 349.663 173.116C349.664 170.253 349.09 167.418 347.974 164.773C346.858 162.128 345.222 159.725 343.16 157.701C341.098 155.677 338.65 154.072 335.955 152.977C333.261 151.882 330.373 151.319 327.457 151.32ZM327.741 184.33C325.482 184.33 323.274 183.672 321.395 182.44C319.517 181.208 318.053 179.456 317.188 177.407C316.324 175.358 316.097 173.104 316.538 170.928C316.979 168.753 318.067 166.755 319.664 165.187C321.262 163.619 323.297 162.551 325.513 162.118C327.728 161.685 330.025 161.907 332.112 162.756C334.2 163.605 335.983 165.042 337.239 166.886C338.494 168.73 339.164 170.898 339.164 173.116C339.164 174.589 338.869 176.047 338.295 177.408C337.722 178.769 336.88 180.005 335.819 181.047C334.759 182.088 333.499 182.914 332.113 183.477C330.727 184.041 329.241 184.33 327.741 184.33Z" fill="#A3A3A3"/>
</g>
<mask id="mask3_254_866" style="mask-type:luminance" maskUnits="userSpaceOnUse" x="269" y="123" width="149" height="65">
<path d="M272.092 158.673C272.092 158.673 323.202 128.404 368.444 123.285C396.21 120.146 428.189 156.683 414.726 175.857C406.906 187.002 369.316 186.352 339.993 187.459C314.142 188.434 267.413 183.854 269.198 183.566L272.092 158.673Z" fill="white"/>
</mask>
<g mask="url(#mask3_254_866)">
<path d="M327.457 151.32C323.065 151.32 318.771 152.599 315.119 154.995C311.467 157.39 308.621 160.795 306.94 164.779C305.26 168.763 304.82 173.146 305.678 177.375C306.535 181.604 308.65 185.489 311.756 188.537C314.862 191.586 318.82 193.662 323.128 194.503C327.435 195.343 331.901 194.911 335.958 193.26C340.016 191.609 343.484 188.814 345.923 185.229C348.363 181.643 349.664 177.428 349.663 173.116C349.664 170.253 349.09 167.418 347.974 164.773C346.858 162.128 345.222 159.725 343.16 157.701C341.098 155.677 338.65 154.072 335.955 152.977C333.261 151.882 330.373 151.319 327.457 151.32ZM327.741 184.33C325.482 184.33 323.274 183.672 321.395 182.44C319.517 181.208 318.053 179.456 317.188 177.407C316.324 175.358 316.097 173.104 316.538 170.928C316.979 168.753 318.067 166.755 319.664 165.187C321.262 163.619 323.297 162.551 325.513 162.118C327.728 161.685 330.025 161.907 332.112 162.756C334.2 163.605 335.983 165.042 337.239 166.886C338.494 168.73 339.164 170.898 339.164 173.116C339.164 174.589 338.869 176.047 338.295 177.408C337.722 178.769 336.88 180.005 335.819 181.047C334.759 182.088 333.499 182.914 332.113 183.477C330.727 184.041 329.241 184.33 327.741 184.33Z" fill="#565697"/>
</g>
<mask id="mask4_254_866" style="mask-type:luminance" maskUnits="userSpaceOnUse" x="269" y="123" width="149" height="65">
<path d="M272.092 158.673C272.092 158.673 323.202 128.404 368.444 123.285C396.21 120.146 428.189 156.683 414.726 175.857C406.906 187.002 369.316 186.352 339.993 187.459C314.142 188.434 267.413 183.854 269.198 183.566L272.092 158.673Z" fill="white"/>
</mask>
<g mask="url(#mask4_254_866)">
<path d="M304.486 183.392L303.978 179.632L307.995 176.429L306.178 172.312L301.098 173.396L298.213 170.875L298.726 165.774L294.648 164.603L291.82 169.04H288.194L284.932 165.339L280.914 167.059L282.112 172.051L279.596 174.7L274.199 174.201L272.801 178.634L277.699 181.045L277.638 184.609L273.444 187.56L275.704 191.939L280.658 190.653L283.417 193.046L282.667 197.969L287.182 199.52L289.82 195.146L293.39 195.205L296.848 198.961L300.795 196.93L299.723 192.062L302.245 189.532L307.259 189.907L308.578 185.836L304.486 183.392ZM290.668 187.638C289.545 187.638 288.446 187.311 287.512 186.698C286.578 186.085 285.85 185.214 285.42 184.195C284.99 183.176 284.877 182.055 285.097 180.973C285.316 179.891 285.857 178.897 286.651 178.118C287.446 177.338 288.458 176.806 289.56 176.591C290.662 176.376 291.804 176.486 292.842 176.909C293.88 177.331 294.768 178.045 295.392 178.963C296.016 179.88 296.349 180.958 296.349 182.061C296.349 182.793 296.202 183.519 295.917 184.195C295.631 184.872 295.213 185.487 294.685 186.005C294.158 186.522 293.532 186.933 292.842 187.214C292.153 187.494 291.414 187.638 290.668 187.638Z" fill="#75778C"/>
</g>
<mask id="mask5_254_866" style="mask-type:luminance" maskUnits="userSpaceOnUse" x="269" y="123" width="149" height="65">
<path d="M272.092 158.673C272.092 158.673 323.202 128.404 368.444 123.285C396.21 120.146 428.189 156.683 414.726 175.857C406.906 187.002 369.316 186.352 339.993 187.459C314.142 188.434 267.413 183.854 269.198 183.566L272.092 158.673Z" fill="white"/>
</mask>
<g mask="url(#mask5_254_866)">
<path d="M390.114 182.23V178.753L386.279 177.01L385.813 174.164L388.996 171.044L387.812 168.203L383.581 168.843L381.33 166.633L382.83 162.15L380.034 160.178L376.553 162.873L373.757 161.587L373.011 158.014L369.18 157.465L367.596 161.582H364.52L362.19 158.563L358.648 159.848L359.021 164.062L356.872 165.814L353.046 164.524L350.716 167.269L353.233 171.025L352.207 173.587L347.817 174.045L347.449 177.627L351.765 179.457V182.394L348.558 185.048L350.059 188.443L354.351 187.894L356.318 190.282L354.92 193.942L357.996 196.152L361.356 193.489L364.073 195.145L364.539 198.901H368.831L370.331 195.145H373.128L375.84 197.991L379.205 196.33L378.547 192.67L380.696 190.927L385.081 191.842L387.048 188.822L384.615 185.789L385.822 182.861L390.114 182.23ZM368.779 186.032C367.202 186.032 365.661 185.573 364.349 184.712C363.038 183.852 362.016 182.63 361.413 181.199C360.809 179.769 360.651 178.195 360.959 176.677C361.267 175.158 362.026 173.763 363.141 172.668C364.256 171.574 365.677 170.828 367.224 170.526C368.771 170.224 370.374 170.379 371.831 170.972C373.288 171.564 374.533 172.567 375.409 173.855C376.286 175.142 376.753 176.655 376.753 178.204C376.754 179.232 376.548 180.25 376.148 181.2C375.747 182.15 375.16 183.013 374.419 183.74C373.679 184.467 372.799 185.044 371.832 185.437C370.864 185.83 369.827 186.032 368.779 186.032Z" fill="#EDE4DD"/>
</g>
<defs>
<linearGradient id="paint0_linear_254_866" x1="680" y1="243" x2="1.01894e-05" y2="263" gradientUnits="userSpaceOnUse">
<stop stop-color="#FE8B7C"/>
<stop offset="1" stop-color="#FDC344"/>
</linearGradient>
</defs>
</svg>
