<svg width="427" height="251" viewBox="0 0 427 251" fill="none" xmlns="http://www.w3.org/2000/svg">
<g clip-path="url(#clip0_1001_97)">
<path d="M186.968 210.169C253.552 210.169 307.529 201.255 307.529 190.258C307.529 179.261 253.552 170.346 186.968 170.346C120.384 170.346 66.4074 179.261 66.4074 190.258C66.4074 201.255 120.384 210.169 186.968 210.169Z" fill="#EDE3DC"/>
<path d="M375.642 182.824C325.945 192.951 309.881 187.164 271.228 176.073C256.168 185.557 234.081 205.681 266.208 204.524C331.969 195.362 354.057 197.291 355.061 222.366L359.579 196.326C361.252 194.719 374.437 185.139 375.642 182.824Z" fill="#EDE3DC"/>
<path d="M204.493 17.0793C204.493 17.0793 203.756 67.8606 201.623 80.7866C199.491 93.7127 231.497 73.675 234.057 87.2327C236.617 100.791 227.656 140.67 232.454 146.121C237.252 151.572 196.715 163.243 194.742 163.561C192.768 163.88 99.3568 150.927 99.3568 150.927C99.3568 150.927 89.033 112.345 76.574 142.425C63.3549 128.63 65.7106 112.171 65.7106 112.171L125.359 77.0435L138.263 40.1539L171.112 17.0725L191.525 6.38472L204.493 17.0793Z" fill="#EDE3DC"/>
<path d="M204.493 17.3929C204.493 17.3929 203.756 68.1742 201.623 81.1048C199.491 94.0353 231.497 73.9953 234.057 87.5508C236.616 101.106 227.656 140.99 232.456 146.439C237.257 151.888 196.717 163.564 194.744 163.882C192.771 164.2 99.3591 151.247 99.3591 151.247C99.3591 151.247 89.0353 112.676 76.5763 142.743C63.3572 128.951 65.7129 112.489 65.7129 112.489L125.359 77.3662L138.263 40.4766L171.112 17.3929L191.525 6.70509L204.493 17.3929Z" fill="#E69766"/>
<g style="mix-blend-mode:multiply" opacity="0.59">
<path d="M204.493 17.3929C204.493 17.3929 203.756 68.1742 201.623 81.1048C199.491 94.0353 231.497 73.9953 234.057 87.5508C236.616 101.106 227.656 140.99 232.456 146.439C237.257 151.888 196.717 163.564 194.744 163.882C192.771 164.2 99.3591 151.247 99.3591 151.247C99.3591 151.247 89.0353 112.676 76.5763 142.743C63.3572 128.951 65.7129 112.489 65.7129 112.489L125.359 77.3662L138.263 40.4766L171.112 17.3929L191.525 6.70509L204.493 17.3929Z" fill="#E69766"/>
</g>
<path d="M194.308 42.4937C194.308 42.4937 192.541 53.7343 198.144 58.2422C201.006 60.5481 193.149 67.6011 185.746 67.1251C178.306 66.6468 171.091 58.1588 174.078 57.8339C179.943 57.1976 179.756 43.8045 179.756 43.8045C179.756 43.8045 187.384 33.0107 194.308 42.4937Z" fill="#EEB5AA"/>
<g style="mix-blend-mode:multiply">
<path d="M194.744 42.9742C194.744 42.9742 191.476 56.2026 178.768 52.0895C179.472 49.9415 179.831 44.9936 179.831 44.9936L194.744 42.9742Z" fill="#EEB5AA"/>
</g>
<path d="M199.66 35.7339C199.66 35.7339 197.313 47.8974 185.875 47.78C176.117 47.6785 172.536 35.7339 172.536 35.7339C172.536 35.7339 168.468 36.2055 167.766 31.693C167.041 27.0542 171.544 28.0627 171.544 28.0627C171.544 28.0627 168.193 10.1932 177.208 4.85949C185.159 0.152961 197.682 2.53781 200.828 11.4161C203.974 20.2945 201.149 27.7604 201.149 27.7604C201.149 27.7604 205.356 27.5347 204.333 32.0901C203.569 35.4903 201.504 35.6459 199.66 35.7339Z" fill="#EEB5AA"/>
<path d="M186.042 26.2013C186.042 26.2013 181.851 33.0377 187.743 31.9841" stroke="#511918" stroke-width="1.93" stroke-linecap="round" stroke-linejoin="round"/>
<path d="M195.617 22.9252C196.135 23.6292 197.388 23.029 196.722 21.9686C195.769 20.4479 192.933 19.6559 190.819 20.6509C188.977 21.5173 190.075 22.5981 190.891 22.113C192.36 21.2331 194.631 21.6008 195.617 22.9252Z" fill="#A95E32"/>
<path d="M177.081 22.9252C176.562 23.6292 175.309 23.029 175.976 21.9686C176.928 20.4479 179.765 19.6559 181.879 20.6509C183.721 21.5173 182.623 22.5981 181.806 22.113C180.333 21.2331 178.062 21.6008 177.081 22.9252Z" fill="#A95E32"/>
<path d="M190.69 26.2013C190.69 26.2013 191.333 27.9928 193.355 27.9273C195.378 27.8619 195.582 26.2013 195.582 26.2013" stroke="black" stroke-width="3.87" stroke-linecap="round" stroke-linejoin="round"/>
<path d="M176.478 26.2013C176.478 26.2013 177.119 27.9928 179.141 27.9273C181.164 27.8619 181.37 26.2013 181.37 26.2013" stroke="black" stroke-width="3.87" stroke-linecap="round" stroke-linejoin="round"/>
<path d="M183.55 35.8129C183.787 36.36 184.191 36.8245 184.71 37.1446C185.229 37.4647 185.836 37.6251 186.452 37.6044C187.066 37.6169 187.67 37.4531 188.186 37.134C188.703 36.8149 189.109 36.3549 189.352 35.8129" fill="#CB4746"/>
<path d="M169.439 30.619C169.439 30.619 170.378 29.5518 171.785 31.0116C171.785 31.0116 170.492 27.9905 169.099 29.4954" stroke="#511918" stroke-width="1.93" stroke-linecap="round" stroke-linejoin="round"/>
<path d="M193.721 8.90504C193.721 8.90504 193.137 16.125 170.948 21.7205C151.548 26.6166 144.399 48.7278 143.794 64.3635C142.717 92.1943 110.131 98.6585 95.3493 102.106C80.5674 105.554 63.81 122.017 76.5787 142.432C76.5787 142.432 32.9489 115.091 75.9499 97.862C118.951 80.6333 112.93 70.0267 121.86 41.4356C128.491 20.2088 146.344 28.2726 157.623 20.2088C168.902 12.145 172.696 -0.469659 182.888 2.49956C193.081 5.46878 193.721 8.90504 193.721 8.90504Z" fill="#E69766"/>
<path d="M193.721 8.90494C193.721 8.90494 200.075 17.05 200.157 27.9273C200.239 38.8047 189.911 51.8232 199.664 58.7679C209.418 65.7127 225.957 92.104 222.616 115.364C219.275 138.623 228.231 150.313 233.709 151.982C239.188 153.652 269.526 146.856 269.526 146.856C269.526 146.856 242.778 133.608 245.924 108.293C249.071 82.9775 244.934 69.9973 234.509 61.0016C224.085 52.006 204.533 55.2053 206.797 37.6044C209.061 20.0034 205.502 11.7455 197.914 5.7462C190.795 0.116864 182.897 2.50172 182.897 2.50172C182.897 2.50172 193.137 5.7304 193.721 8.90494Z" fill="#E69766"/>
<path d="M188.665 4.78729C188.665 4.78729 181.37 3.80357 177.839 13.246C175.523 19.4393 158.411 19.2791 144.608 27.9273C127.588 38.5926 144.936 76.3667 126.375 81.2334C92.5079 90.1297 61.8767 102.447 64.528 123.328C66.4449 138.459 76.5764 142.432 76.5764 142.432C67.2427 136.775 67.1418 119.303 74.711 107.981C87.3413 89.0919 119.038 86.7724 130.957 81.2379C142.876 75.7033 137.097 56.9336 145.539 37.6044C153.874 18.5165 172.811 22.0724 179.697 14.7712C187.412 6.59906 191.525 7.40905 191.525 7.40905" stroke="#A95E32" stroke-width="1.93" stroke-linecap="round" stroke-linejoin="round"/>
<path d="M184.005 3.20791C184.005 3.20791 174.566 2.49945 171.776 11.283C168.935 20.2245 146.025 24.3692 146.025 24.3692C146.025 24.3692 121.942 27.8574 125.359 47.78C129.322 70.893 119.155 81.3981 107.266 85.2946C93.6928 89.7575 53.4135 104.443 59.5045 124.219C62.2497 133.134 76.5764 142.432 76.5764 142.432" stroke="#A95E32" stroke-width="1.93" stroke-miterlimit="10"/>
<path d="M242.977 138.287C242.977 138.287 271.638 130.742 278.51 137.206C285.382 143.67 276.633 159.223 276.633 159.223L229.707 163.561L242.977 138.287Z" fill="#EEB5AA"/>
<path d="M99.3591 137.206C99.3591 137.206 102.175 132.254 121.788 135.401C141.4 138.549 154.636 142.436 154.636 142.436L157.623 157.413L122.646 153.954L99.3638 137.206" fill="#EEB5AA"/>
<path d="M156.668 139.356L160.61 127.114C160.61 127.114 202.229 124.384 214.066 128.353L219.441 142.432C219.441 142.432 231.469 136.602 242.093 136.34C245.922 136.245 245.922 141.374 245.922 145.744C245.922 150.114 240.76 170.303 240.76 170.303L192.332 184.77L123.937 160.439C123.937 160.439 127.564 137.425 133.069 135.395C140.166 132.773 156.668 139.356 156.668 139.356Z" fill="#565797"/>
<path d="M214.908 146.725L219.444 142.432" stroke="white" stroke-width="1.93" stroke-linecap="round" stroke-linejoin="round"/>
<path d="M162.44 143.255L156.816 139.602" stroke="white" stroke-width="1.93" stroke-linecap="round" stroke-linejoin="round"/>
<path d="M188.439 134.589C188.439 134.589 188.404 134.984 188.341 135.674" stroke="white" stroke-width="1.93" stroke-linecap="round" stroke-linejoin="round"/>
<path d="M188.146 137.737C187.879 140.555 187.442 144.875 186.973 149.07C185.69 160.254 185.035 169.376 187.74 177.95" stroke="white" stroke-width="1.93" stroke-linecap="round" stroke-linejoin="round" stroke-dasharray="9.2 9.2"/>
<path d="M188.064 178.951C188.184 179.294 188.31 179.628 188.439 179.98" stroke="white" stroke-width="1.93" stroke-linecap="round" stroke-linejoin="round"/>
<path d="M181.867 134C181.867 134 179.521 149.627 179.99 152.921C180.436 156.08 185.856 155.629 185.856 155.629" stroke="white" stroke-width="1.93" stroke-linecap="round" stroke-linejoin="round" stroke-dasharray="9.66 9.66"/>
<path d="M156.471 96.1449C156.471 96.1449 153.637 106.909 158.421 113.719C163.618 121.108 152.189 120.905 160.957 127.933C166.823 132.64 195.166 137.547 210.213 132.053C222.719 127.486 214.101 122.214 216.783 115.808C217.75 113.489 220.141 106.26 218.716 97.5799C227.74 128.039 236.391 129.235 245.934 128.797C259.983 128.152 271.783 103.462 277.731 100.664C285.289 97.1106 279.327 80.4978 274.399 76.4795C266.767 70.25 259.162 80.0105 254.547 87.2305L246.924 99.1547C246.924 99.1547 232.846 69.5212 217.175 63.5737C211.103 61.2498 198.458 58.3167 198.458 58.3167C198.458 58.3167 195.591 67.5312 186.961 67.1363C178.332 66.7415 174.071 57.8338 174.071 57.8338C174.071 57.8338 157.881 60.7128 148.674 68.2577C140.502 74.9497 125.57 99.2788 125.57 99.2788C125.57 99.2788 116.098 92.7718 112.47 87.2327C108.404 81.0258 97.8598 77.0796 92.6557 80.9649C86.1235 85.8271 85.8514 95.1927 87.6158 99.3645C89.8002 104.554 102.951 113.085 111.651 120.027C125.234 130.857 136.548 126.198 141.018 121.832C148.871 114.138 156.471 96.1449 156.471 96.1449Z" fill="#FDCA5D"/>
<path d="M215.669 109.737C215.669 109.737 200.211 133.296 171.774 124.104" stroke="#565797" stroke-width="1.93" stroke-linecap="round" stroke-linejoin="round"/>
<path d="M161.706 113.983C161.706 113.983 172.994 120.032 186.02 120.19" stroke="#565797" stroke-width="1.93" stroke-linecap="round" stroke-linejoin="round"/>
<path d="M246.924 99.1547C246.924 99.1547 242.095 103.737 243.672 109.743" stroke="#565797" stroke-width="1.93" stroke-linecap="round" stroke-linejoin="round"/>
<path d="M125.577 99.2788C125.577 99.2788 132.405 102.801 133.069 109.737" stroke="#565797" stroke-width="1.93" stroke-linecap="round" stroke-linejoin="round"/>
<path d="M169.702 58.8198C169.702 58.8198 173.245 71.1615 187.257 70.8885C199.793 70.6426 202.273 59.2417 202.273 59.2417L198.458 58.3167C198.458 58.3167 195.021 67.1499 186.56 67.0551C178.686 66.9671 174.078 57.8338 174.078 57.8338L169.702 58.8198Z" fill="#565797"/>
<g style="mix-blend-mode:multiply">
<path d="M95.979 89.2009C97.8463 84.9125 97.9909 80.8848 96.302 80.2047C94.613 79.5247 91.7301 82.4498 89.8628 86.7382C87.9955 91.0266 87.8509 95.0544 89.5398 95.7344C91.2287 96.4144 94.1117 93.4893 95.979 89.2009Z" fill="#FDCA5D"/>
</g>
<g style="mix-blend-mode:multiply">
<path d="M277.28 91.3452C278.969 90.664 278.821 86.6364 276.951 82.3492C275.081 78.0621 272.195 75.1389 270.507 75.82C268.819 76.5012 268.966 80.5288 270.837 84.816C272.707 89.1031 275.592 92.0263 277.28 91.3452Z" fill="#FDCA5D"/>
</g>
<path d="M157.623 87.966L156.471 96.1449C153.89 93.8413 153.93 89.9786 153.93 89.9786" stroke="#565797" stroke-width="1.93" stroke-linecap="round" stroke-linejoin="round"/>
<path d="M222.902 89.8342C222.902 89.8342 220.755 96.1629 218.665 97.7716L218.733 91.8467" stroke="#565797" stroke-width="1.93" stroke-linecap="round" stroke-linejoin="round"/>
<path d="M279.202 84.4485C282.223 84.1967 285.217 83.7054 288.153 82.9797C290.419 82.3764 292.596 81.4992 294.632 80.3692C297.464 78.7018 296.509 77.4948 296.509 77.4948C296.509 77.4948 295.624 77.1473 296.394 76.2583C297.259 75.2588 295.988 74.8437 295.988 74.8437C296.134 74.195 296.321 73.5554 296.546 72.9281C296.896 72.0256 295.734 72.5152 295.734 72.5152C295.734 72.5152 294.402 72.4656 294.521 71.3871C294.641 70.3086 294.829 65.7465 293.665 65.0877C292.501 64.4288 287.018 64.3927 286.03 64.3612C284.413 64.307 283.355 66.024 285.601 66.6174C288.245 67.3214 290.812 67.8064 290.812 67.8064L289.674 70.0469L284.967 72.7273C284.967 72.7273 283.156 73.7313 282.011 72.901C281.511 72.54 281.138 71.8271 281.098 70.532C283.029 68.2915 283.968 67.0213 283.318 65.9541C282.468 64.562 280.915 65.196 278.463 68.3028C276.011 71.4097 274.535 71.8023 274.005 74.7467C273.822 75.771 273.205 81.1048 279.202 84.4485Z" fill="#EEB5AA"/>
<path d="M277.839 78.0475C277.839 78.0475 281.621 76.9375 281.295 72.5152" stroke="#511918" stroke-width="1.93" stroke-linecap="round" stroke-linejoin="round"/>
<path d="M275.333 75.8906L269.958 82.4201C269.958 82.4201 271.497 87.887 274.434 90.2403C276.41 88.6857 280.347 83.9093 280.347 83.9093" fill="#EEB5AA"/>
<path d="M92.5008 80.3015L97.3295 84.9697C97.3295 84.9697 96.5952 89.9334 93.1742 93.8029C91.4262 92.1942 85.7481 85.994 85.7481 85.994" fill="#EEB5AA"/>
<path d="M270.828 135.618C261.232 137.54 250.556 142.779 237.008 146.856C223.461 150.933 185.258 181.733 185.258 181.733L207.058 187.904C207.058 187.904 253.463 176.117 270.263 164.36C273.296 162.239 284.594 155.649 284.594 149.841C284.594 144.668 280.425 133.698 270.828 135.618Z" fill="#EEB5AA"/>
<path d="M107.046 135.618C116.64 137.54 127.318 142.779 140.866 146.856C154.413 150.933 192.616 181.733 192.616 181.733L170.816 187.9C170.816 187.9 124.411 176.117 107.611 164.36C104.577 162.239 93.2798 155.649 93.2798 149.841C93.2798 144.668 97.4492 133.698 107.046 135.618Z" fill="#EEB5AA"/>
<path d="M245.924 143.912C245.924 143.912 256.926 140.128 265.042 137.721" stroke="#511918" stroke-width="1.93" stroke-linecap="round" stroke-linejoin="round"/>
<path d="M128.329 142.601C128.329 142.601 123.754 140.776 109.547 137.301" stroke="#511918" stroke-width="1.93" stroke-linecap="round" stroke-linejoin="round"/>
<mask id="mask0_1001_97" style="mask-type:luminance" maskUnits="userSpaceOnUse" x="132" y="168" width="85" height="36">
<path d="M202.459 168.469C202.459 168.469 213.132 183.8 216.192 185.42C212.344 187.275 166.45 203.558 166.45 203.558C166.45 203.558 146.201 203.659 139.415 201.178C136.513 200.117 134.052 197.59 133.059 193.443C126.602 166.474 159.103 188.897 164.127 183.365C171.764 174.962 180.727 180.37 186.959 177.273C193.191 174.175 202.459 168.469 202.459 168.469Z" fill="white"/>
</mask>
<g mask="url(#mask0_1001_97)">
<path d="M202.459 168.469C202.459 168.469 213.132 183.8 216.192 185.42C212.344 187.275 183.843 191.668 171.304 196.794C168.402 197.818 162.599 200.889 158.348 201.396C155.267 201.764 143.55 200.124 139.214 192.498C132.123 180.032 159.106 188.888 164.136 183.365C171.774 174.962 180.737 180.37 186.968 177.273C193.2 174.175 202.459 168.469 202.459 168.469Z" fill="white"/>
<path d="M193.951 170.378C193.951 170.378 196.668 186.347 206.138 190.257C215.608 194.167 214.908 189.179 214.908 189.179C214.908 189.179 199.296 170.452 199.603 166.921C199.911 163.39 193.951 170.378 193.951 170.378Z" fill="#FDCA5D"/>
<path d="M193.721 163.882C193.721 163.882 202.712 185.045 210.293 187.9" stroke="white" stroke-width="9.66" stroke-linecap="round" stroke-linejoin="round"/>
</g>
<mask id="mask1_1001_97" style="mask-type:luminance" maskUnits="userSpaceOnUse" x="160" y="169" width="80" height="35">
<path d="M176.389 169.026C176.389 169.026 163.73 183.732 160.612 185.242C163.744 186.697 189.094 193.466 197.844 197.638C200.424 198.867 206.548 198.847 209.725 199.77C215.206 200.943 218.96 203.973 226.206 203.508C231.117 203.195 238.228 198.937 239.517 193.443C242.386 181.192 221.295 187.207 213.824 185.659C208.341 184.531 203.608 185.6 191.241 178.755C185.159 175.389 176.389 169.026 176.389 169.026Z" fill="white"/>
</mask>
<g mask="url(#mask1_1001_97)">
<path d="M176.389 169.026C176.389 169.026 163.73 183.732 160.612 185.242C164.383 187.232 210.209 205.442 210.209 205.442C210.209 205.442 226.276 209.07 233.153 206.829C236.093 205.873 242.585 201.232 241.762 197.051C239.024 183.087 232.78 182.552 221.511 181.539C209.955 180.501 197.344 182.076 191.243 178.755C185.143 175.434 176.389 169.026 176.389 169.026Z" fill="white"/>
<path d="M180.964 167.37C180.964 167.37 172.297 182.564 162.358 187.902C151.771 193.588 173.437 191.862 173.437 191.862C173.437 191.862 182.588 181.307 185.584 173.383C186.466 171.023 180.964 167.37 180.964 167.37Z" fill="#FDCA5D"/>
<path d="M185.584 165.818C185.584 165.818 177.607 186.038 160.612 194.977" stroke="white" stroke-width="9.66" stroke-linecap="round" stroke-linejoin="round"/>
</g>
<path d="M187.947 176.936C187.947 176.936 194.5 180.422 196.863 181.539C205.586 185.675 214.84 185.675 214.84 185.675" stroke="#511918" stroke-width="1.93" stroke-linecap="round" stroke-linejoin="round"/>
<path d="M160.612 185.242L183.306 192.498" stroke="#511918" stroke-width="1.93" stroke-linecap="round" stroke-linejoin="round"/>
<path d="M295.953 61.9492C297.166 61.5206 298.611 64.7312 298.611 64.7312C298.611 64.7312 299.357 68.6187 299.179 69.6949C299 70.7712 295.824 75.2859 295.824 75.2859L291.302 73.138C291.302 73.138 295.633 69.5686 295.955 69.0023C296.276 68.4359 296.042 67.4409 295.955 65.8435C294.725 63.3278 295.063 62.2629 295.953 61.9492Z" fill="#EEB5AA"/>
<path d="M302.374 67.1702C303.611 67.6463 303.388 69.9273 302.952 71.0058C302.515 72.0843 301.666 74.2728 300.992 74.9204C300.319 75.5679 294.221 77.0616 294.221 77.0616L291.797 73.6163C291.797 73.6163 298.923 72.5513 299.212 72.0956C299.5 71.6398 301.131 66.6941 302.374 67.1702Z" fill="#EEB5AA"/>
<path d="M298.099 71.7143C299.338 72.1903 299.115 74.4714 298.679 75.5499C298.243 76.6284 297.393 78.8169 296.72 79.4645C296.046 80.112 289.946 81.6056 289.946 81.6056L287.525 78.1716C287.525 78.1716 295.052 77.1225 295.34 76.6667C295.629 76.211 296.863 71.2382 298.099 71.7143Z" fill="#EEB5AA"/>
<path d="M291.959 77.8761C291.959 77.8761 295.052 76.8179 295.335 76.3666C295.619 75.9154 296.858 70.9517 298.095 71.4164C299.331 71.8812 299.111 74.4669 298.674 75.5544" stroke="#511918" stroke-width="1.93" stroke-linecap="round" stroke-linejoin="round"/>
<path d="M291.302 72.5152L294.58 70.3064" stroke="#511918" stroke-width="1.93" stroke-linecap="round" stroke-linejoin="round"/>
<path d="M293.275 74.406L296.424 73.226" stroke="#511918" stroke-width="1.93" stroke-linecap="round" stroke-linejoin="round"/>
<path d="M89.3075 88.6384C86.3015 89.0138 83.2683 89.1496 80.239 89.0445C77.8945 88.9188 75.576 88.5087 73.3384 87.8239C70.2014 86.777 70.8701 85.3916 70.8701 85.3916C70.8701 85.3916 71.6585 84.8704 70.7082 84.162C69.6406 83.3633 70.7903 82.6954 70.7903 82.6954C70.5025 82.0918 70.1781 81.505 69.819 80.9378C69.277 80.1233 70.5229 80.3692 70.5229 80.3692C70.5229 80.3692 71.8133 80.0466 71.4614 79.0155C71.1094 77.9844 69.9105 73.5757 70.9006 72.6867C71.8908 71.7978 77.2357 70.6426 78.1953 70.4079C79.7627 70.0221 81.1799 71.4819 79.1174 72.5288C76.6913 73.7629 74.2911 74.7625 74.2911 74.7625L75.9006 76.7186L81.0954 78.3679C81.0954 78.3679 83.0898 78.9771 84.0236 77.9302C84.4295 77.479 84.636 76.7028 84.3873 75.4281C82.0011 73.6366 80.8021 72.5874 81.201 71.4142C81.7218 69.8777 83.3807 70.18 86.4661 72.7093C89.5515 75.2385 91.0813 75.322 92.2428 78.0904C92.2357 78.104 96.0039 85.8429 89.3075 88.6384Z" fill="#EEB5AA"/>
<path d="M89.2183 82.1065C89.2183 82.1065 85.2765 81.7974 84.6125 77.4113" stroke="#511918" stroke-width="1.93" stroke-linecap="round" stroke-linejoin="round"/>
<path d="M67.9443 70.1033C66.6632 69.9341 65.9663 73.3681 65.9663 73.3681C65.9663 73.3681 66.1001 77.3188 66.5154 78.3318C66.9306 79.3449 71.0273 83.1015 71.0273 83.1015L74.9668 80.0737C74.9668 80.0737 69.941 77.4767 69.5022 76.9894C69.0635 76.502 69.0705 75.4822 68.7983 73.8983C69.4482 71.1976 68.8828 70.2274 67.9443 70.1033Z" fill="#EEB5AA"/>
<path d="M62.8387 76.5223C61.7335 77.2421 62.4586 79.4239 63.1273 80.3986C63.796 81.3733 65.1099 83.3317 65.91 83.819C66.7101 84.3064 73.0029 84.5185 73.0029 84.5185L74.6031 80.6535C74.6031 80.6535 67.4069 81.0777 67.0245 80.6919C66.642 80.3061 63.9414 75.8026 62.8387 76.5223Z" fill="#EEB5AA"/>
<path d="M68.017 80.0849C66.9142 80.8047 67.6392 82.9865 68.3079 83.9589C68.9766 84.9313 70.2906 86.892 71.0907 87.3794C71.8907 87.8667 78.1836 88.0788 78.1836 88.0788L79.7838 84.2161C79.7838 84.2161 72.1981 84.7373 71.8063 84.3515C71.4144 83.9657 69.1197 79.3652 68.017 80.0849Z" fill="#EEB5AA"/>
<path d="M75.3868 84.8411C75.3868 84.8411 72.1324 84.4508 71.75 84.0672C71.3675 83.6836 69.0564 79.0741 67.9513 79.7984C66.8462 80.5226 67.6392 82.9865 68.3079 83.9589" stroke="#511918" stroke-width="1.93" stroke-linecap="round" stroke-linejoin="round"/>
<path d="M74.8377 79.469L71.1446 77.9844" stroke="#511918" stroke-width="1.93" stroke-linecap="round" stroke-linejoin="round"/>
<path d="M73.329 81.7207L69.9902 81.2176" stroke="#511918" stroke-width="1.93" stroke-linecap="round" stroke-linejoin="round"/>
<path d="M200.019 134.589C200.056 134.704 200.666 136.92 202.165 138.034C204.873 140.047 210.8 137.971 210.8 137.971" stroke="white" stroke-width="1.93" stroke-linecap="round" stroke-linejoin="round"/>
<path d="M174.798 132.773C174.798 132.773 173.041 137.369 169.782 137.7C167.489 137.926 163.942 136.453 163.942 136.453" stroke="white" stroke-width="1.93" stroke-linecap="round" stroke-linejoin="round"/>
<path d="M156.816 139.602L158.348 145.259" stroke="white" stroke-width="1.93" stroke-linecap="round" stroke-linejoin="round"/>
<path d="M219.444 142.432L212.937 144.577" stroke="white" stroke-width="1.93" stroke-linecap="round" stroke-linejoin="round"/>
<path d="M390.606 251.328C410.822 251.328 427.211 235.584 427.211 216.164C427.211 196.743 410.822 181 390.606 181C370.389 181 354 196.743 354 216.164C354 235.584 370.389 251.328 390.606 251.328Z" fill="#EDE3DC"/>
<path d="M390.961 251.331C390.961 251.331 385.051 239.22 376.918 233.968C368.785 228.715 363.775 240.077 363.775 240.077C363.775 240.077 374.363 251.649 390.961 251.331Z" fill="#6BB487"/>
<path d="M400.526 199.234C400.526 199.234 403.328 204.386 404.119 210.569C408.064 213.949 407.777 215.534 407.777 215.534C407.777 215.534 406.866 216.792 403.65 217.96C403.567 220.567 402.191 226.868 399.007 228.931C397.138 230.145 393.771 230.685 390.909 229.601C389.442 229.044 385.011 238.446 384.767 242.175C384.523 245.905 383.736 248.823 377.846 242.175C371.957 235.527 367.529 230.923 370.382 226.319C373.236 221.716 381.257 219.543 381.257 219.543C381.257 219.543 373.105 218.778 376.578 212.753C378.799 208.891 382.401 213.962 382.401 213.962C382.401 213.962 379.428 202.944 383.008 203.002C386.587 203.061 398.341 199.057 400.526 199.234Z" fill="#EFB6AB"/>
<path d="M400.875 206.826C400.875 206.826 399.086 206.292 397.137 208.088" stroke="#A26D4B" stroke-width="5.38" stroke-linecap="round" stroke-linejoin="round"/>
<path d="M398.413 211.468C398.413 211.468 399.085 212.24 400.423 212.02C401.322 211.873 401.562 210.849 401.562 210.849" stroke="black" stroke-width="5.38" stroke-linecap="round" stroke-linejoin="round"/>
<path d="M398.252 221.05C398.252 221.05 400.975 224.452 403.107 221.433Z" fill="#CB4646"/>
<path d="M377.878 214.413C377.878 214.413 378.703 212.613 380.274 213.377C381.846 214.142 381.741 216.163 381.741 216.163C381.741 216.163 380.116 214.189 379.355 216.163" stroke="#532210" stroke-width="2.69" stroke-linecap="round" stroke-linejoin="round"/>
<path d="M398.44 200.612C398.44 200.612 397.259 205.799 387.339 209.843C382.636 211.759 382.819 214.654 382.819 214.654C382.819 214.654 379.585 209.042 377.015 212.78C373.357 218.109 381.26 219.535 381.26 219.535C381.26 219.535 376.658 227.96 377.735 235.264C378.134 237.993 379.302 240.704 381.741 243.006C390.597 251.329 393.887 251.185 393.887 251.185C393.887 251.185 378.297 253.84 364.322 240.637C358.384 234.278 357.386 230.972 357.386 230.972C357.386 230.972 366.251 223.624 368.092 216.167C369.933 208.709 371.448 202.295 373.18 199.782C374.911 197.269 395.249 197.105 400.134 199.059C402.041 199.963 398.44 200.612 398.44 200.612Z" fill="#E69766"/>
<path d="M387.226 201.445C394.656 201.445 400.679 200.611 400.679 199.581C400.679 198.552 394.656 197.717 387.226 197.717C379.797 197.717 373.774 198.552 373.774 199.581C373.774 200.611 379.797 201.445 387.226 201.445Z" fill="#E69766"/>
<path opacity="0.59" d="M387.226 201.445C394.656 201.445 400.679 200.611 400.679 199.581C400.679 198.552 394.656 197.717 387.226 197.717C379.797 197.717 373.774 198.552 373.774 199.581C373.774 200.611 379.797 201.445 387.226 201.445Z" fill="#E69766"/>
<path d="M388.158 201.448C388.158 201.448 387.152 206.235 380.931 212.063" stroke="#A26D4B" stroke-width="2.69" stroke-linecap="round" stroke-linejoin="round"/>
<path d="M379.043 201.062C379.043 201.062 375.815 201.621 373.777 209.736C370.048 224.58 360.159 235.295 360.159 235.295" stroke="#A26D4B" stroke-width="2.69" stroke-linecap="round" stroke-linejoin="round"/>
<path d="M380.616 219.729C367.473 241.341 385.822 250.868 385.822 250.868" stroke="#A26D4B" stroke-width="2.69" stroke-linecap="round" stroke-linejoin="round"/>
<path d="M373.328 246.83C373.328 246.83 371.542 236.744 377.271 226.664" stroke="#A26D4B" stroke-width="2.69" stroke-linecap="round" stroke-linejoin="round"/>
<path d="M370.126 244.961C370.126 244.961 370.795 238.709 374.589 232.87" stroke="#A26D4B" stroke-width="2.69" stroke-linecap="round" stroke-linejoin="round"/>
<path d="M390.606 229.462C386.599 227.219 385.12 224.571 385.12 224.571" stroke="#532210" stroke-width="2.69" stroke-linecap="round" stroke-linejoin="round"/>
<path d="M384.941 224.073C384.941 224.073 383.025 230.851 387.62 233.778C389.13 230.694 390.633 229.563 390.633 229.563C390.633 229.563 387.354 228.542 384.941 224.073Z" fill="#EFB6AB"/>
<path d="M393.734 201.062C393.734 201.062 394.345 199.695 396.442 195.865C398.54 192.035 396.965 187.576 396.965 187.576C396.965 187.576 397.791 190.79 395.385 194.319C392.98 197.848 392.408 200.125 393.121 200.919C393.586 201.447 393.734 201.062 393.734 201.062Z" fill="#38646D"/>
<path d="M386.774 185.197C386.774 185.197 385.335 189.67 387.017 193.495C388.7 197.32 386.321 200.741 384.892 201.398C386.848 199.233 385.241 194.717 384.892 193.298C384.544 191.879 384.441 190.565 386.774 185.197Z" fill="#6BB487"/>
<path d="M380.125 186.51C380.125 186.51 380.363 192.244 381.985 193.764C383.607 195.283 384.149 194.86 384.547 197.586C385.122 191.53 382.509 189.987 380.125 186.51Z" fill="#C5D786"/>
<path d="M377.09 184.439C377.09 184.439 371.783 191.08 374.315 195.869C375.452 198.023 377.307 199.749 379.585 200.771C379.585 200.771 379.825 198.494 378.299 195.901C376.949 193.601 375.505 190.017 377.09 184.439Z" fill="#38646D"/>
<path d="M376.622 185.596C376.622 185.596 373.918 189.851 376.89 194.893C379.065 198.574 379.597 200.96 379.597 200.96" stroke="#1D1E40" stroke-width="1.79" stroke-linecap="round" stroke-linejoin="round"/>
<path d="M361.319 196.966C361.319 196.966 365.967 193.787 369.902 195.736C373.837 197.686 374.843 200.308 374.843 200.308L375.678 200.537C375.678 200.537 374.284 194.823 369.524 193.764C364.763 192.704 361.319 196.966 361.319 196.966Z" fill="#6BB487"/>
<path d="M370.626 189.977C370.76 189.753 378.581 194.467 376.158 200.639C374.281 197.96 373.99 193.556 370.626 189.977Z" fill="#C5D786"/>
<path d="M400.278 190.964C400.278 190.964 397.535 192.555 397.625 196.318C397.733 200.769 394.415 200.952 394.415 200.952" stroke="#1D1E40" stroke-width="1.79" stroke-linecap="round" stroke-linejoin="round"/>
<path d="M395.253 183.71C395.253 183.71 388.808 187.734 390.248 201.221" stroke="#38646D" stroke-width="1.79" stroke-linecap="round" stroke-linejoin="round"/>
<path d="M394.481 183.357C394.481 183.357 393.486 184.309 393.589 185.031" stroke="#38646D" stroke-width="2.69" stroke-linecap="round" stroke-linejoin="round"/>
<path d="M392.976 184.074C392.976 184.074 392.33 185.097 392.976 185.988" stroke="#38646D" stroke-width="2.69" stroke-linecap="round" stroke-linejoin="round"/>
<path d="M391.98 185.197C391.765 185.528 391.659 185.913 391.674 186.302C391.689 186.692 391.825 187.068 392.065 187.382" stroke="#38646D" stroke-width="2.69" stroke-linecap="round" stroke-linejoin="round"/>
<path d="M390.933 186.291C390.933 186.291 390.585 187.738 391.571 188.585" stroke="#38646D" stroke-width="2.69" stroke-linecap="round" stroke-linejoin="round"/>
<path d="M390.058 187.383C390.058 187.383 389.997 188.995 390.929 190.151" stroke="#38646D" stroke-width="2.69" stroke-linecap="round" stroke-linejoin="round"/>
<path d="M389.633 189.227C389.633 189.227 389.72 191.126 390.492 191.877" stroke="#38646D" stroke-width="2.69" stroke-linecap="round" stroke-linejoin="round"/>
<path d="M388.989 190.746C388.989 190.746 389.055 192.607 390.257 193.758" stroke="#38646D" stroke-width="2.69" stroke-linecap="round" stroke-linejoin="round"/>
<path d="M388.639 192.82C388.639 192.82 389.045 194.187 390.067 195.079" stroke="#38646D" stroke-width="2.69" stroke-linecap="round" stroke-linejoin="round"/>
<path d="M388.43 194.754C388.43 194.754 388.961 196.149 389.977 196.799" stroke="#38646D" stroke-width="2.69" stroke-linecap="round" stroke-linejoin="round"/>
<path d="M388.43 196.319C388.43 196.319 388.627 198.288 389.949 199.148" stroke="#38646D" stroke-width="2.69" stroke-linecap="round" stroke-linejoin="round"/>
<path d="M395.174 184.438C395.174 184.438 394.572 185.183 393.781 185.081" stroke="#38646D" stroke-width="2.69" stroke-linecap="round" stroke-linejoin="round"/>
<path d="M394.962 185.197C394.962 185.197 394.265 186.076 393.192 186.01" stroke="#38646D" stroke-width="2.69" stroke-linecap="round" stroke-linejoin="round"/>
<path d="M394.699 186.291C394.699 186.291 394.176 187.243 392.314 187.327" stroke="#38646D" stroke-width="2.69" stroke-linecap="round" stroke-linejoin="round"/>
<path d="M393.783 187.859C393.512 188.127 393.18 188.332 392.814 188.457C392.448 188.583 392.056 188.626 391.67 188.584" stroke="#38646D" stroke-width="2.69" stroke-linecap="round" stroke-linejoin="round"/>
<path d="M393.586 188.896C393.586 188.896 392.495 190.014 391.48 189.515" stroke="#38646D" stroke-width="2.69" stroke-linecap="round" stroke-linejoin="round"/>
<path d="M393.471 189.847C393.471 189.847 392.27 191.125 391.067 190.622" stroke="#38646D" stroke-width="2.69" stroke-linecap="round" stroke-linejoin="round"/>
<path d="M393.38 190.746C393.38 190.746 391.727 192.717 390.605 192.168" stroke="#38646D" stroke-width="2.69" stroke-linecap="round" stroke-linejoin="round"/>
<path d="M393.38 191.878C393.38 191.878 391.708 193.946 390.496 193.752" stroke="#38646D" stroke-width="2.69" stroke-linecap="round" stroke-linejoin="round"/>
<path d="M392.645 193.861C392.645 193.861 391.358 195.648 390.229 195.648" stroke="#38646D" stroke-width="2.69" stroke-linecap="round" stroke-linejoin="round"/>
<path d="M392.645 195.057C392.645 195.057 391.114 196.615 390.295 196.493" stroke="#38646D" stroke-width="2.69" stroke-linecap="round" stroke-linejoin="round"/>
<path d="M391.87 196.797C391.87 196.797 390.839 197.818 390.114 197.78" stroke="#38646D" stroke-width="2.69" stroke-linecap="round" stroke-linejoin="round"/>
<path d="M383.267 201.22C383.267 201.22 384.904 199.475 384.389 195.865" stroke="#6BB487" stroke-width="1.79" stroke-linecap="round" stroke-linejoin="round"/>
<path d="M378.707 190.15C378.818 190.25 383.285 199.704 382.142 201.194" stroke="#38646D" stroke-width="1.79" stroke-linecap="round" stroke-linejoin="round"/>
<path d="M377.744 189.712C377.744 189.712 378.216 190.965 379.043 191.186" stroke="#38646D" stroke-width="2.69" stroke-linecap="round" stroke-linejoin="round"/>
<path d="M377.56 190.964C377.56 190.964 378.874 192.428 379.626 192.272" stroke="#38646D" stroke-width="2.69" stroke-linecap="round" stroke-linejoin="round"/>
<path d="M378.569 193.762C378.569 193.762 379.947 194.994 380.738 194.888" stroke="#38646D" stroke-width="2.69" stroke-linecap="round" stroke-linejoin="round"/>
<path d="M379.585 196.319C380.115 196.848 380.817 197.188 381.576 197.283" stroke="#38646D" stroke-width="2.69" stroke-linecap="round" stroke-linejoin="round"/>
<path d="M379.951 197.951C379.951 197.951 381.159 198.65 381.867 198.416" stroke="#38646D" stroke-width="2.69" stroke-linecap="round" stroke-linejoin="round"/>
<path d="M379.212 189.391C379.212 189.391 379.55 190.316 379.212 190.966" stroke="#38646D" stroke-width="2.69" stroke-linecap="round" stroke-linejoin="round"/>
<path d="M380.125 190.55C380.095 191.068 379.961 191.576 379.731 192.046" stroke="#38646D" stroke-width="2.69" stroke-linecap="round" stroke-linejoin="round"/>
<path d="M380.501 191.878C380.501 191.878 380.973 193.024 380.369 193.595C379.764 194.165 378.031 192.557 378.031 192.557" stroke="#38646D" stroke-width="2.69" stroke-linecap="round" stroke-linejoin="round"/>
<path d="M381.325 193.474C381.325 193.474 381.426 194.386 380.738 194.892" stroke="#38646D" stroke-width="2.69" stroke-linecap="round" stroke-linejoin="round"/>
<path d="M382.076 194.226C382.076 194.226 382.229 195.869 381.17 196.028C380.485 196.13 379.212 195.079 379.212 195.079" stroke="#38646D" stroke-width="2.69" stroke-linecap="round" stroke-linejoin="round"/>
<path d="M382.591 195.555C382.623 196.278 382.361 196.984 381.859 197.524" stroke="#38646D" stroke-width="2.69" stroke-linecap="round" stroke-linejoin="round"/>
<path d="M383.267 197.286C383.267 197.286 383.194 198.657 382.324 199.047" stroke="#38646D" stroke-width="2.69" stroke-linecap="round" stroke-linejoin="round"/>
<path d="M383.425 199.153C383.425 199.153 383.425 200.353 382.38 200.774" stroke="#38646D" stroke-width="2.69" stroke-linecap="round" stroke-linejoin="round"/>
<path d="M398.587 199.872C400.286 193.948 407.208 191.929 407.208 191.929C407.208 191.929 403.457 190.792 400.016 194.104C397.019 196.984 398.418 200.643 398.418 200.643L398.587 199.872Z" fill="#6BB487"/>
</g>
<defs>
<clipPath id="clip0_1001_97">
<rect width="427" height="251" fill="white"/>
</clipPath>
</defs>
</svg>
