<svg width="584" height="441" viewBox="0 0 584 441" fill="none" xmlns="http://www.w3.org/2000/svg">
<g clip-path="url(#clip0_1001_166)">
<path d="M296.887 435.001C448.707 435.001 571.781 416.606 571.781 393.915C571.781 371.223 448.707 352.828 296.887 352.828C145.067 352.828 21.9932 371.223 21.9932 393.915C21.9932 416.606 145.067 435.001 296.887 435.001Z" fill="#EDE4DD"/>
<path d="M377.695 326.14H10.8965C8.00981 326.13 5.24436 324.979 3.20316 322.939C1.16195 320.899 0.0105451 318.136 0 315.251V82.7309C0.0105451 79.8462 1.16195 77.0826 3.20316 75.0428C5.24436 73.003 8.00981 71.8523 10.8965 71.8418H377.69C380.577 71.8523 383.342 73.003 385.383 75.0428C387.425 77.0826 388.576 79.8462 388.587 82.7309V315.251C388.583 318.137 387.434 320.904 385.392 322.945C383.351 324.986 380.583 326.135 377.695 326.14Z" fill="#565697"/>
<path d="M359.139 301.307H30.0879C28.9864 301.308 27.8955 301.092 26.8776 300.671C25.8597 300.25 24.9348 299.633 24.1556 298.855C23.3765 298.077 22.7584 297.153 22.3367 296.136C21.915 295.119 21.6979 294.029 21.6979 292.928V101.254C21.6979 99.0306 22.5819 96.8981 24.1553 95.3257C25.7287 93.7534 27.8628 92.87 30.0879 92.87H359.139C361.363 92.8713 363.496 93.7553 365.068 95.3275C366.641 96.8997 367.524 99.0315 367.524 101.254V292.928C367.525 294.029 367.308 295.119 366.887 296.135C366.466 297.152 365.848 298.076 365.07 298.855C364.291 299.633 363.366 300.25 362.349 300.671C361.331 301.092 360.24 301.308 359.139 301.307Z" fill="#BCDDE8"/>
<path d="M237.001 326.01H155.298V365.292H237.001V326.01Z" fill="#1D1E40"/>
<path d="M259.039 380.641H132.769C130.734 380.635 128.785 379.825 127.346 378.387C125.908 376.948 125.099 375 125.095 372.966C125.1 370.934 125.91 368.987 127.349 367.551C128.787 366.114 130.736 365.306 132.769 365.302H259.039C261.073 365.306 263.022 366.114 264.46 367.551C265.898 368.987 266.709 370.934 266.714 372.966C266.71 375 265.9 376.948 264.462 378.387C263.024 379.825 261.074 380.635 259.039 380.641Z" fill="#565697"/>
<path d="M350.499 198.386H261.091C259.667 198.385 258.303 197.819 257.296 196.813C256.29 195.808 255.724 194.444 255.722 193.022V184.172C255.724 182.75 256.29 181.386 257.296 180.38C258.303 179.375 259.667 178.809 261.091 178.808H350.499C351.922 178.809 353.287 179.375 354.293 180.38C355.3 181.386 355.866 182.75 355.867 184.172V193.022C355.867 193.726 355.728 194.424 355.458 195.074C355.189 195.725 354.793 196.317 354.295 196.815C353.796 197.313 353.204 197.708 352.553 197.978C351.902 198.247 351.204 198.386 350.499 198.386Z" fill="#FCCA5F"/>
<path d="M350.674 251.977H261.381C259.943 251.975 258.564 251.404 257.547 250.388C256.531 249.372 255.959 247.994 255.958 246.557V237.808C255.959 236.371 256.531 234.993 257.547 233.977C258.564 232.961 259.943 232.389 261.381 232.388H350.674C352.113 232.388 353.493 232.959 354.511 233.975C355.528 234.991 356.101 236.37 356.102 237.808V246.557C356.1 247.994 355.527 249.372 354.509 250.388C353.492 251.404 352.112 251.975 350.674 251.977Z" fill="#565697"/>
<path d="M352.555 221.089H288.017C287.633 221.089 287.252 221.013 286.897 220.866C286.543 220.719 286.22 220.504 285.949 220.232C285.678 219.961 285.462 219.638 285.316 219.283C285.169 218.928 285.094 218.548 285.095 218.164V212.845C285.094 212.461 285.169 212.081 285.316 211.727C285.463 211.372 285.678 211.05 285.949 210.779C286.221 210.508 286.543 210.292 286.898 210.146C287.253 209.999 287.633 209.924 288.017 209.925H352.555C352.939 209.924 353.32 209.999 353.675 210.146C354.03 210.292 354.352 210.507 354.624 210.778C354.896 211.05 355.112 211.372 355.259 211.726C355.406 212.081 355.482 212.461 355.482 212.845V218.164C355.482 218.94 355.174 219.684 354.625 220.232C354.076 220.781 353.331 221.089 352.555 221.089Z" fill="white"/>
<path d="M196.617 86.3806C198.524 86.3806 200.069 84.8361 200.069 82.9309C200.069 81.0256 198.524 79.4811 196.617 79.4811C194.711 79.4811 193.165 81.0256 193.165 82.9309C193.165 84.8361 194.711 86.3806 196.617 86.3806Z" fill="white"/>
<path d="M240.038 316.081H152.741C152.432 316.081 152.135 315.958 151.917 315.74C151.698 315.521 151.575 315.225 151.575 314.916V312.096C151.575 311.787 151.698 311.491 151.917 311.273C152.135 311.054 152.432 310.931 152.741 310.931H240.038C240.347 310.931 240.644 311.054 240.862 311.273C241.081 311.491 241.204 311.787 241.204 312.096V314.916C241.201 315.224 241.077 315.519 240.859 315.737C240.641 315.955 240.346 316.078 240.038 316.081Z" fill="#1D1E40"/>
<path d="M21.6979 216.07V293.528C21.6986 294.549 21.9005 295.56 22.292 296.503C22.6836 297.446 23.2572 298.302 23.9801 299.024C24.7029 299.745 25.5609 300.317 26.5051 300.707C27.4492 301.098 28.4609 301.298 29.4826 301.297L97.313 301.187" stroke="#1D1E40" stroke-width="2.82" stroke-linecap="round" stroke-linejoin="round"/>
<path d="M282.238 301.872H359.749C360.771 301.872 361.783 301.67 362.726 301.279C363.67 300.887 364.527 300.314 365.249 299.592C365.971 298.869 366.543 298.012 366.934 297.068C367.324 296.125 367.525 295.114 367.524 294.093L367.409 226.314" stroke="#1D1E40" stroke-width="2.82" stroke-linecap="round" stroke-linejoin="round"/>
<path d="M87.1119 92.525H27.9216C24.6447 92.525 21.9831 94.8798 21.9931 97.7846L22.0732 143.626" stroke="#1D1E40" stroke-width="2.82" stroke-linecap="round" stroke-linejoin="round"/>
<path d="M135.571 93.2405C135.571 93.2405 118.176 94.8754 106.554 106.779C98.4391 115.074 80.8936 184.773 89.3837 197.832C97.8737 210.891 110.746 202.726 110.746 202.726C110.746 202.726 104.448 287.039 97.3284 301.178C136.922 301.468 221.107 301.178 221.107 301.178C221.107 301.178 196.177 218.23 196.998 173.084C212.717 186.138 223.283 188.582 223.283 188.582C223.283 188.582 267.1 162.745 271.752 155.135C276.405 147.526 270.382 122.763 264.908 122.228C259.435 121.693 230.948 142.086 221.637 149.986C215.884 141.831 198.914 112.989 192.06 105.11C186.391 98.5451 167.16 87.326 135.571 93.2405Z" fill="white"/>
<path d="M132.429 207.096L116.445 212.885V219.925L135.381 214.22V205.951L132.429 207.096Z" stroke="#1D1E40" stroke-width="1.41" stroke-linecap="round" stroke-linejoin="round"/>
<path d="M184.06 202.351V210.441L196.618 213.76V206.921L184.06 202.351Z" stroke="#1D1E40" stroke-width="1.41" stroke-linecap="round" stroke-linejoin="round"/>
<path d="M194.616 142.201C194.616 142.201 195.792 162.845 196.618 172.434" stroke="#1D1E40" stroke-width="1.41" stroke-linecap="round" stroke-linejoin="round"/>
<path d="M212.972 154.845C214.623 150.346 221.647 150.346 221.647 150.346C213.643 156.68 213.903 162.845 213.903 162.845" stroke="#1D1E40" stroke-width="1.41" stroke-linecap="round" stroke-linejoin="round"/>
<path d="M271.137 156.102C273.745 155.592 274.401 147.733 272.602 138.55C270.802 129.367 267.229 122.336 264.62 122.847C262.012 123.357 261.356 131.215 263.155 140.399C264.955 149.582 268.528 156.613 271.137 156.102Z" fill="#CECECE"/>
<path d="M177.346 95.8303L189.398 116.419L177.346 130.502L190.459 132.042L178.071 184.838" stroke="#1D1E40" stroke-width="1.41" stroke-linecap="round" stroke-linejoin="round"/>
<path d="M129.863 94.3004L122.548 116.774L135.381 129.927L122.548 132.042L139.954 192.272" stroke="#1D1E40" stroke-width="1.41" stroke-linecap="round" stroke-linejoin="round"/>
<path d="M132.759 301.298C132.759 301.298 145.932 230.739 140.064 202.481C134.195 174.224 178.087 199.701 178.087 199.701C178.087 199.701 182.854 267.521 190.479 301.313H166.139L158.925 249.512L153.152 301.298H132.759Z" fill="#1D1E40"/>
<path d="M158.185 204.201V232.654C158.185 232.654 163.588 233.399 164.013 229.054C164.438 224.709 163.588 208.621 163.588 208.621" stroke="white" stroke-width="1.41" stroke-linecap="round" stroke-linejoin="round"/>
<path d="M145.047 209.361C145.047 209.361 165.364 212.47 174.855 208.161" stroke="white" stroke-width="1.41" stroke-linecap="round" stroke-linejoin="round"/>
<path d="M160.816 209.036C161.742 209.036 162.492 208.286 162.492 207.361C162.492 206.436 161.742 205.686 160.816 205.686C159.891 205.686 159.14 206.436 159.14 207.361C159.14 208.286 159.891 209.036 160.816 209.036Z" stroke="white" stroke-width="1.41" stroke-linecap="round" stroke-linejoin="round"/>
<path d="M167.405 95.1354C167.405 95.1354 180.268 129.487 177.731 198.442C177.371 208.171 140.054 202.616 140.054 202.616C140.054 202.616 139.423 134.392 138.408 124.788C137.392 115.184 136.942 96.6002 136.942 96.6002L167.405 95.1354Z" fill="#565697"/>
<path d="M124.635 139.027L159.105 131.432C159.512 131.343 159.933 131.345 160.339 131.44C160.744 131.534 161.123 131.719 161.448 131.979C161.772 132.24 162.034 132.57 162.214 132.945C162.394 133.32 162.487 133.731 162.487 134.147V194.982C162.487 195.593 162.285 196.188 161.914 196.674C161.542 197.16 161.021 197.511 160.431 197.672L123.374 207.601C122.952 207.713 122.51 207.725 122.083 207.635C121.656 207.546 121.256 207.357 120.916 207.085C120.575 206.812 120.303 206.464 120.122 206.067C119.94 205.67 119.855 205.237 119.872 204.801L122.458 141.651C122.478 141.035 122.703 140.442 123.097 139.967C123.491 139.491 124.032 139.161 124.635 139.027Z" fill="#1D1E40"/>
<path d="M133.69 132.577L134.16 138.462L149.439 135.687V129.467L133.69 132.577Z" fill="#FCCA5F"/>
<path d="M149.439 161.65C149.439 161.65 160.516 152.236 164.123 153.15C167.73 154.065 170.152 160.405 170.417 161.46C170.682 162.515 169.541 163.46 169.541 163.46C170.009 164.166 170.319 164.963 170.452 165.799C170.527 166.624 169.286 167.599 169.286 167.599C169.286 167.599 170.142 169.509 170.117 170.409C170.099 170.803 169.992 171.189 169.803 171.535C169.614 171.882 169.348 172.181 169.026 172.409C169.026 172.409 169.241 173.119 168.411 175.084C167.789 176.661 166.789 178.062 165.499 179.163C164.593 180.008 162.497 180.723 162.497 180.723V174.289C162.497 174.289 151.04 175.789 149.449 174.859C147.858 173.929 149.449 161.65 149.449 161.65" fill="#EFB6AB"/>
<path d="M165.189 170.639C165.558 170.386 165.837 170.023 165.987 169.602C166.137 169.181 166.15 168.723 166.024 168.294C165.684 166.609 167.755 166.359 166.079 164.514C164.859 163.165 167.66 162.015 165.704 160.655C164.408 159.74 167.35 158.155 166.229 156.905C165.109 155.655 165.809 153.7 164.784 153.405" stroke="#532210" stroke-width="1.41" stroke-linecap="round" stroke-linejoin="round"/>
<path d="M165.254 175.029C165.254 175.029 163.193 175.294 162.102 174.299" stroke="#532210" stroke-width="1.41" stroke-linecap="round" stroke-linejoin="round"/>
<path d="M97.7636 181.758C103.162 171.864 114.869 165.569 128.912 161.26C142.956 156.95 149.424 153.16 149.424 153.16L148.164 189.157L110.716 203.446C110.716 203.446 81.9192 212.35 97.7636 181.758Z" fill="white"/>
<path d="M100.906 179.923C100.906 179.923 101.816 173.254 111.332 168.659" stroke="#1D1E40" stroke-width="1.41" stroke-linecap="round" stroke-linejoin="round"/>
<path d="M96.4278 178.893C96.4278 178.893 102.276 168.659 111.342 168.659C111.342 168.659 112.342 167.634 117.375 165.549C122.408 163.465 123.554 162.015 123.554 162.015" stroke="#1D1E40" stroke-width="1.41" stroke-linecap="round" stroke-linejoin="round"/>
<path d="M140.659 87.516L164.473 88.7009L165.104 97.0152H139.869L140.659 87.516Z" fill="#E69766"/>
<path d="M139.273 62.2782C139.273 62.2782 139.273 62.4031 139.238 62.6181C139.023 64.553 138.128 74.1671 141.99 74.8321C146.288 75.572 148.134 63.633 148.134 63.633L144.436 53.9639" fill="#9D4E49"/>
<path d="M142.05 63.633C142.05 63.633 143.316 88.4659 141.41 95.6303C139.504 102.795 152.456 108.924 159.42 103.835C163.168 101.09 162.682 99.565 162.682 99.565C162.682 99.565 160.436 84.9212 163.723 81.4615C167.01 78.0018 142.05 63.633 142.05 63.633Z" fill="#EFB6AB"/>
<path opacity="0.72" d="M145.887 74.0722C145.887 74.0722 146.618 85.4312 152.626 89.8758C158.83 94.4804 162.037 90.2808 162.037 90.2808C162.037 90.2808 161.747 84.6513 163.338 81.9465C164.623 79.7667 145.887 74.0722 145.887 74.0722Z" fill="#EFB6AB"/>
<path d="M139.894 95.1354L140.664 87.516L151.911 100.795V105.689C151.911 105.689 139.258 104.935 139.894 95.1354Z" fill="#E69766"/>
<path d="M146.533 108.074L151.901 100.795L140.659 87.516L136.952 97.2202L146.533 108.074Z" fill="#FCCA5F"/>
<path d="M156.153 105.33L157.344 100.925L163.498 92.3056L163.918 98.6601C163.918 98.6601 160.036 104.765 156.153 105.33Z" fill="#E69766"/>
<path d="M160.496 108.074L157.344 100.925L164.473 88.7009L167.405 97.2502L160.496 108.074Z" fill="#FCCA5F"/>
<path d="M177.136 51.944C177.136 51.944 178.172 86.7261 161.577 86.0961C148.294 85.5962 142.19 66.8528 142.19 66.8528C142.19 66.8528 134.185 68.2377 134.085 58.6435C134.03 52.459 141.54 53.2289 141.89 56.3787C142.24 59.5284 142.535 37.5203 149.074 37.7552C155.613 37.9902 168.151 37.8302 177.136 51.944Z" fill="#EFB6AB"/>
<path d="M151.631 38.3402C151.631 38.3402 157.429 52.594 173.104 52.049C188.778 51.5041 184.235 37.5503 184.235 37.5503C184.235 37.5503 181.964 26.9762 166.995 24.5514C152.026 22.1266 148.484 30.0259 148.484 30.0259C148.484 30.0259 137.622 31.0508 134.38 40.29C132.339 46.0845 133.555 52.259 136.412 54.3738C140.659 53.9489 140.914 56.5436 142.44 56.8136C145.767 57.4236 145.032 51.814 146.838 49.6092C148.644 47.4044 154.848 44.6047 151.631 38.3402Z" fill="#9D4E49"/>
<path d="M136.707 57.6585C140.139 55.7087 141.24 60.8483 141.24 60.8483C141.24 60.8483 140.029 58.9834 138.013 59.7584" stroke="#532210" stroke-width="1.41" stroke-linecap="round" stroke-linejoin="round"/>
<path d="M158.925 61.5282C159.793 61.5282 160.496 60.4135 160.496 59.0384C160.496 57.6634 159.793 56.5486 158.925 56.5486C158.057 56.5486 157.354 57.6634 157.354 59.0384C157.354 60.4135 158.057 61.5282 158.925 61.5282Z" fill="#221F1F"/>
<path d="M172.353 61.5282C173.221 61.5282 173.924 60.4135 173.924 59.0384C173.924 57.6634 173.221 56.5486 172.353 56.5486C171.485 56.5486 170.782 57.6634 170.782 59.0384C170.782 60.4135 171.485 61.5282 172.353 61.5282Z" fill="#221F1F"/>
<path d="M154.618 54.9938C156.786 53.4766 159.404 52.7366 162.047 52.894" stroke="#9D4E49" stroke-width="5.64" stroke-linecap="round" stroke-linejoin="round"/>
<path d="M169.822 53.4489C169.822 53.4489 172.933 53.5889 174.825 55.0088" stroke="#9D4E49" stroke-width="5.64" stroke-linecap="round" stroke-linejoin="round"/>
<path d="M166.39 59.0834C166.39 59.0834 168.546 64.488 168.171 66.3478C167.625 69.0826 163.503 67.9277 163.503 67.9277" stroke="#532210" stroke-width="1.41" stroke-linecap="round" stroke-linejoin="round"/>
<path opacity="0.66" d="M158.335 71.0724C158.335 71.0724 164.508 73.7772 168.666 71.8423C168.066 74.2871 165.939 76.127 164.163 76.297C162.047 76.4919 158.345 73.9922 158.335 71.0724Z" fill="#D8877C"/>
<path d="M146.213 75.357C146.213 75.357 149.159 81.0616 153.992 84.0313C157.404 86.1361 161.767 86.0961 161.767 86.0961" stroke="#532210" stroke-width="1.41" stroke-linecap="round" stroke-linejoin="round"/>
<path d="M151.576 32.8957C151.576 32.8957 163.758 48.2693 175.275 47.3394C184.235 46.6145 184.455 40.45 184.455 40.45" stroke="#532210" stroke-width="1.41" stroke-linecap="round" stroke-linejoin="round"/>
<path d="M150.145 31.3408C150.145 31.3408 171.853 50.0642 183.975 37.7452" stroke="#532210" stroke-width="1.41" stroke-linecap="round" stroke-linejoin="round"/>
<path d="M149.109 30.2109C149.109 30.2109 168.226 43.4948 182.094 33.9956" stroke="#532210" stroke-width="1.41" stroke-linecap="round" stroke-linejoin="round"/>
<path d="M423.778 71.9473C430.643 58.6335 430.643 40.14 415.273 26.3312C400.294 12.8573 355.398 -10.3307 310.811 16.0621C279.848 34.3905 291.875 91.8756 329.202 103.91C367.525 116.269 406.073 98.99 406.073 98.99L432.449 105.32C432.449 105.32 416.914 85.2612 423.778 71.9473Z" fill="#FCFCFC" stroke="#1D1E40" stroke-width="1.88" stroke-miterlimit="10"/>
<path d="M262.282 134.987C262.282 134.987 267.175 131.952 267.345 131.272C267.515 130.592 267.595 124.028 268.526 122.773C269.456 121.518 272.994 116.699 274.6 116.204C276.206 115.709 281.259 117.203 281.259 117.203L282.019 117.793L286.572 113.584L289.609 114.349L290.539 119.318L291.3 123.358L290.874 127.568L291.875 133.067C291.754 133.714 291.506 134.331 291.145 134.881C290.783 135.432 290.315 135.904 289.769 136.272C287.832 137.702 280.668 142.006 278.217 142.271C275.765 142.536 271.973 142.611 271.973 142.611C271.973 142.611 266.405 147.411 265.064 147.076C263.648 143.646 263.378 141.581 262.282 134.987Z" fill="#EFB6AB"/>
<path d="M282.189 117.778C277.876 111.364 266.46 92.2806 275.44 81.6415C286.817 68.1426 313.228 80.7616 320.862 78.1418C328.497 75.522 319.396 56.4936 325.555 53.9739C331.714 51.4541 322.913 73.4922 347.833 71.8323C372.753 70.1725 355.188 55.9387 373.098 54.9938C391.009 54.0488 399.814 64.038 404.212 52.8889C408.609 41.7399 393.06 33.8206 385.701 35.2904C378.341 36.7603 389.413 71.8273 377.286 71.8273C365.159 71.8273 378.366 50.3292 368.971 40.165C359.575 30.0009 339.918 35.5804 338.303 47.3144C336.687 59.0484 315.849 61.1532 314.964 53.9389C314.078 46.7245 319.656 31.4758 327.886 37.6302C329.792 39.0551 331.388 41.3749 332.889 44.0997C337.797 53.0989 341.539 66.4428 351.675 66.6728C364.888 66.9627 377.191 58.7484 378.391 46.4295C379.592 34.1105 375.164 12.7024 356.668 17.9819C338.172 23.2615 331.423 34.6955 353.166 36.7553C374.909 38.8151 384.275 37.6352 382.809 28.541C381.343 19.4468 357.564 21.5066 355.223 32.9406C352.881 44.3747 317.95 53.6939 351.115 73.6822C384.28 93.6705 395.737 79.0367 396.912 71.8273C398.088 64.6179 384.625 63.758 358.164 52.8939C331.704 42.0299 354.057 47.3244 363.743 44.3947C373.428 41.4649 396.482 41.1699 390.679 31.4858C384.875 21.8016 348.774 20.8767 333.219 31.1908C317.665 41.5049 320.602 56.1187 327.056 65.8078C333.51 75.497 356.698 74.9371 365.499 68.1726C374.299 61.4082 377.251 25.6213 396.912 35.3054C416.574 44.9896 400.289 74.2521 388.617 73.6972C376.946 73.1422 385.255 36.9453 365.484 31.4958C345.712 26.0462 324.96 24.4614 331.463 45.8745C337.967 67.2877 370.847 84.1513 380.187 79.9916C389.528 75.832 360.606 48.4943 360.606 48.4943" stroke="#1D1E40" stroke-width="1.88" stroke-miterlimit="10"/>
<path d="M275.44 120.843C275.44 120.843 275.77 126.423 279.247 126.688C282.724 126.953 282.925 125.633 282.925 125.633L282.029 117.778" stroke="#532210" stroke-width="1.41" stroke-linecap="round" stroke-linejoin="round"/>
<path d="M282.935 121.698C282.935 121.698 288.783 117.303 289.899 118.158C291.014 119.013 291.244 122.253 289.899 123.278C287.222 125.318 282.079 129.732 279.708 129.007C277.336 128.283 278.542 126.548 278.542 126.548" stroke="#532210" stroke-width="1.41" stroke-linecap="round" stroke-linejoin="round"/>
<path d="M279.908 130.307C279.182 131.282 279.182 133.517 281.549 133.582C283.915 133.647 290.484 127.673 290.484 127.673C290.484 127.673 290.924 122.553 290.584 122.253C284.966 127.243 280.628 129.317 279.908 130.307Z" stroke="#532210" stroke-width="1.41" stroke-linecap="round" stroke-linejoin="round"/>
<path d="M282.069 134.222C282.069 134.222 281.954 137.062 284.57 136.497C287.187 135.932 289.964 133.267 289.964 133.267" stroke="#532210" stroke-width="1.41" stroke-linecap="round" stroke-linejoin="round"/>
<path d="M289.964 135.247C289.678 135.25 289.397 135.176 289.15 135.034C288.903 134.891 288.698 134.685 288.558 134.437" stroke="#532210" stroke-width="1.41" stroke-linecap="round" stroke-linejoin="round"/>
<path d="M302.961 247.977C302.961 247.977 266.17 226.629 282.069 197.127C297.968 167.624 286.016 135.847 286.016 135.847" stroke="#1D1E40" stroke-width="1.88" stroke-miterlimit="10"/>
<path d="M520.426 411.248L493.815 341.449" stroke="#221F1F" stroke-width="7.52" stroke-miterlimit="10" stroke-linecap="round"/>
<path d="M417.685 411.393L444.295 341.589" stroke="#221F1F" stroke-width="7.52" stroke-miterlimit="10" stroke-linecap="round"/>
<path d="M427.565 340.104H515.118C518.107 340.095 520.971 338.904 523.085 336.792C525.199 334.68 526.39 331.817 526.399 328.83V327.47C526.39 324.483 525.199 321.621 523.085 319.509C520.971 317.396 518.107 316.206 515.118 316.196H427.565C424.576 316.206 421.712 317.396 419.598 319.509C417.484 321.621 416.293 324.483 416.284 327.47V328.825C416.292 331.813 417.483 334.677 419.596 336.79C421.71 338.904 424.575 340.095 427.565 340.104Z" fill="#FCCA5F"/>
<path d="M417.514 328.82H419.866" stroke="#221F1F" stroke-width="1.59" stroke-miterlimit="10"/>
<path d="M424.784 328.82H520.526" stroke="#221F1F" stroke-width="1.59" stroke-miterlimit="10" stroke-dasharray="9.81 9.81"/>
<path d="M522.982 328.82H525.334" stroke="#221F1F" stroke-width="1.59" stroke-miterlimit="10"/>
<path d="M556.237 184.568C555.145 186.258 554.459 188.178 554.236 190.177C553.791 194.312 554.111 200.941 560.334 202.616C566.558 204.291 576.104 193.482 580.471 190.552C582.147 189.432 584.579 186.888 583.628 185.808C582.473 184.493 575.253 190.267 574.278 190.267C573.532 190.267 586.545 180.208 583.783 177.858C582.738 176.973 576.429 182.678 572.186 186.043C572.272 185.198 584.504 174.514 582.107 172.389C580.211 170.719 573.732 178.823 568.834 182.323C572.011 176.898 576.589 170.824 575.243 168.999C573.898 167.174 563.671 183.418 561.78 184.188C559.889 184.958 562.516 173.564 559.279 172.974C558.233 172.794 559.029 180.208 556.237 184.568Z" fill="#EFB6AB"/>
<path d="M391.048 185.918C392.138 187.609 392.822 189.529 393.05 191.527C393.49 195.662 393.17 202.296 386.946 203.966C380.722 205.636 371.197 194.817 366.824 191.902C365.153 190.787 362.717 188.238 363.667 187.158C364.823 185.843 372.042 191.622 373.023 191.622C373.763 191.622 360.75 181.558 363.517 179.208C364.558 178.328 370.866 184.033 375.109 187.393C375.024 186.548 362.792 175.864 365.188 173.744C367.089 172.069 373.568 180.178 378.466 183.673C375.284 178.253 370.706 172.174 372.052 170.349C373.398 168.524 383.624 184.773 385.515 185.543C387.406 186.313 384.785 174.919 388.017 174.324C389.057 174.144 388.267 181.558 391.048 185.918Z" fill="#EFB6AB"/>
<path d="M436.14 185.938C428.376 195.437 426.635 200.267 424.719 210.056C422.802 219.845 421.216 224.744 421.216 224.744C421.216 224.744 419.956 225.654 408.954 202.636C405.757 195.947 397.738 201.411 397.738 201.411L394.235 196.142L382.954 204.806L385.67 209.511C385.67 209.511 380.442 212.435 381.073 217.66C381.703 222.885 388.387 225.859 394.235 236.383C400.084 246.908 406.037 263.126 419.52 260.266C429.947 258.062 437.496 245.858 437.496 245.858C437.496 245.858 425.159 261.726 434.354 270.501C443.55 279.275 502.06 303.413 507.898 302.203C513.737 300.993 526.724 295.203 521.336 282.595C518.87 276.845 517.149 264.236 517.149 264.236C517.149 264.236 536.2 262.701 545.816 245.358C556.027 226.939 564.207 223.22 564.117 215.91C564.128 214.551 563.737 213.219 562.992 212.081C562.246 210.944 561.181 210.053 559.929 209.521L563.061 204.551L553.235 194.177L549.508 199.982C549.508 199.982 549.918 193.252 544.07 195.352C538.221 197.452 534.254 206.266 531.332 210.111C529.046 213.11 523.387 221.545 523.387 221.545L510.675 189.307C510.675 189.307 504.891 177.863 492.594 176.709C492.444 169.379 475.164 166.709 458.274 171.399C449.934 173.709 443.505 176.004 441.484 181.088C439.527 182.5 437.735 184.127 436.14 185.938Z" fill="#E65557"/>
<path d="M454.616 178.713C454.616 178.713 443.775 180.573 445.396 185.053C447.017 189.532 451.099 203.801 458.464 204.991C465.828 206.181 468.109 204.016 469.971 200.736C471.832 197.457 482.778 181.088 482.353 179.013C481.928 176.938 470.431 176.644 470.431 176.644C470.431 176.644 472.312 180.863 464.112 181.833C454.296 182.983 454.616 178.713 454.616 178.713Z" fill="#FCCA5F"/>
<path d="M514.432 228.229C514.432 228.229 519.365 220.865 523.402 221.49C518.349 225.719 517.184 233.244 517.184 233.244" stroke="#870F0F" stroke-width="1.41" stroke-linecap="round" stroke-linejoin="round"/>
<path d="M421.201 224.744C421.201 224.744 428.056 228.699 428.206 239.353" stroke="#870F0F" stroke-width="1.41" stroke-linecap="round" stroke-linejoin="round"/>
<path d="M431.498 232.044C431.498 232.044 428.761 224 421.201 225.409" stroke="#870F0F" stroke-width="1.41" stroke-linecap="round" stroke-linejoin="round"/>
<path d="M498.923 214.915C498.923 214.915 500.334 224 500.644 229.479C500.954 234.959 498.948 261.821 517.189 264.206" stroke="#870F0F" stroke-width="1.41" stroke-linecap="round" stroke-linejoin="round"/>
<path d="M438.717 217.265C438.717 217.265 441.474 226.819 440.718 233.239C440.13 237.544 439.05 241.768 437.501 245.828" stroke="#870F0F" stroke-width="1.41" stroke-linecap="round" stroke-linejoin="round"/>
<path d="M460.86 205.651C460.86 205.651 462.826 220.235 459.714 230.569C456.603 240.903 455.042 249.857 460.215 257.677" stroke="#870F0F" stroke-width="1.41" stroke-linecap="round" stroke-linejoin="round"/>
<path d="M466.238 205.331C466.238 205.331 469.74 205.921 469.74 214.915C469.74 223.53 465.208 227.289 468.24 233.239" stroke="#870F0F" stroke-width="1.41" stroke-linecap="round" stroke-linejoin="round"/>
<path d="M457.398 205.331C457.398 205.331 451.895 210.216 455.187 217.265C458.479 224.314 451.84 228.644 451.84 228.644" stroke="#870F0F" stroke-width="1.41" stroke-linecap="round" stroke-linejoin="round"/>
<path d="M485.365 254.697L481.362 257.697C481.362 257.697 488.577 266.301 495.626 271.001C502.675 275.7 505.187 274.13 505.187 274.13V270.841C505.187 270.841 492.979 267.701 485.365 254.697Z" stroke="#870F0F" stroke-width="1.41" stroke-linecap="round" stroke-linejoin="round"/>
<path d="M549.523 199.927C549.523 203.726 554.651 209.041 557.608 209.926" stroke="#870F0F" stroke-width="1.41" stroke-linecap="round" stroke-linejoin="round"/>
<path d="M397.732 201.401C397.732 201.401 394.15 208.016 388.492 209.901" stroke="#870F0F" stroke-width="1.41" stroke-linecap="round" stroke-linejoin="round"/>
<path d="M500.624 208.571C500.624 208.571 500.754 207.886 501.064 206.751" stroke="#870F0F" stroke-width="1.41" stroke-linecap="round" stroke-linejoin="round"/>
<path d="M501.975 203.891C503.139 200.583 504.808 197.475 506.923 194.677" stroke="#870F0F" stroke-width="1.41" stroke-linecap="round" stroke-linejoin="round" stroke-dasharray="6 6"/>
<path d="M507.893 193.522C508.303 193.052 508.739 192.597 509.189 192.157" stroke="#870F0F" stroke-width="1.41" stroke-linecap="round" stroke-linejoin="round"/>
<path d="M435.015 193.022C435.015 193.022 435.26 193.472 435.645 194.282" stroke="#870F0F" stroke-width="1.41" stroke-linecap="round" stroke-linejoin="round"/>
<path d="M436.681 196.647C438.022 200.002 439.683 205.236 439.462 210.481" stroke="#870F0F" stroke-width="1.41" stroke-linecap="round" stroke-linejoin="round" stroke-dasharray="5.16 5.16"/>
<path d="M439.387 211.766C439.337 212.236 439.272 212.695 439.197 213.165" stroke="#870F0F" stroke-width="1.41" stroke-linecap="round" stroke-linejoin="round"/>
<path d="M492.209 178.118C492.209 178.118 489.117 188.073 478.501 195.777" stroke="#870F0F" stroke-width="1.41" stroke-linecap="round" stroke-linejoin="round"/>
<path d="M442.224 183.483C442.224 183.483 443.645 192.162 447.492 196.832" stroke="#870F0F" stroke-width="1.41" stroke-linecap="round" stroke-linejoin="round"/>
<path d="M482.383 179.013C482.383 179.013 483.539 176.814 479.741 174.729" stroke="#870F0F" stroke-width="1.41" stroke-linecap="round" stroke-linejoin="round"/>
<path d="M472.587 180.983C472.832 183.953 468.77 187.743 463.212 188.173C456.603 188.673 452.735 185.618 452.495 182.648C452.255 179.678 456.548 176.908 462.091 176.449C467.634 175.989 472.332 178.038 472.587 180.983Z" fill="white"/>
<path d="M441.924 162.315L466.483 161.2C469.443 161.065 472.228 159.761 474.225 157.575C476.223 155.388 477.269 152.498 477.135 149.541L476.634 138.637C476.498 135.679 475.193 132.897 473.006 130.9C470.818 128.904 467.927 127.856 464.968 127.988L440.413 129.108C438.947 129.174 437.509 129.528 436.18 130.149C434.851 130.771 433.658 131.648 432.668 132.731C431.678 133.814 430.912 135.081 430.412 136.459C429.913 137.838 429.69 139.302 429.757 140.767L430.257 151.666C430.322 153.131 430.676 154.568 431.298 155.897C431.92 157.225 432.798 158.418 433.882 159.407C434.965 160.396 436.233 161.162 437.613 161.661C438.993 162.16 440.458 162.382 441.924 162.315Z" fill="#A26D4B"/>
<path d="M471.947 151.106C471.947 151.106 468.445 162.25 470.761 177.368C472.097 186.183 456.818 188.782 455.172 182.368C454.131 178.288 455.642 173.019 451.78 165.134C447.622 156.65 471.947 151.106 471.947 151.106Z" fill="#EFB6AB"/>
<path opacity="0.72" d="M455.642 174.184C457.418 175.004 459.875 175.434 463.307 171.499C466.739 167.564 468.675 159.3 468.675 159.3L452.86 164.64C452.86 164.64 453.856 173.369 455.642 174.184Z" fill="#EFB6AB"/>
<path d="M437.796 136.732C437.796 136.732 437.026 149.576 439.858 156.67C442.724 163.865 450.959 170.519 454.271 169.484C464.943 166.179 466.664 161.78 468.675 159.28C478.18 147.511 484.469 146.991 484.149 139.242C483.829 131.637 467.779 116.624 448.573 120.888C438.597 123.118 437.796 136.732 437.796 136.732Z" fill="#EFB6AB"/>
<path d="M451.485 133.847C451.485 133.847 453.075 135.437 456.488 135.437" stroke="#A26D4B" stroke-width="4.7" stroke-linecap="round" stroke-linejoin="round"/>
<path d="M443.45 134.647C442.447 135.521 441.265 136.166 439.988 136.537" stroke="#A26D4B" stroke-width="4.7" stroke-linecap="round" stroke-linejoin="round"/>
<path d="M453.996 142.536C454.911 142.536 455.652 141.435 455.652 140.077C455.652 138.718 454.911 137.617 453.996 137.617C453.081 137.617 452.34 138.718 452.34 140.077C452.34 141.435 453.081 142.536 453.996 142.536Z" fill="#221F1F"/>
<path d="M441.999 142.996C442.913 142.996 443.655 141.895 443.655 140.537C443.655 139.178 442.913 138.077 441.999 138.077C441.084 138.077 440.343 139.178 440.343 140.537C440.343 141.895 441.084 142.996 441.999 142.996Z" fill="#221F1F"/>
<path d="M448.103 140.537C448.103 140.537 443.225 147.441 445.216 149.446C447.207 151.451 450.219 149.446 450.219 149.446" stroke="#532210" stroke-width="1.41" stroke-linecap="round" stroke-linejoin="round"/>
<path d="M448.393 154.265C448.542 153.869 448.821 153.536 449.184 153.318C449.548 153.101 449.974 153.014 450.394 153.071C452.535 153.316 455.037 154.525 455.772 156.285C456.723 158.55 452.27 159.9 450.684 159.425C449.248 158.985 447.292 157.325 448.393 154.265Z" fill="#CB4646"/>
<path d="M450.499 153.37C450.499 153.37 459.254 156.06 453.921 158.735" stroke="#870F0F" stroke-width="1.41" stroke-linecap="round" stroke-linejoin="round"/>
<path d="M457.398 122.318C457.398 122.318 467.549 135.132 468.174 140.792C470.991 136.422 476.444 136.927 476.68 142.536C476.612 143.999 476.244 145.432 475.599 146.746C473.538 151.051 470.796 149.841 470.796 149.841C470.796 149.841 466.794 168.839 478.21 167.079C493.124 164.8 489.507 161.245 486.836 156.08C481.607 145.941 489.757 142.406 487.106 132.477C484.454 122.548 478.701 118.523 471.802 116.749C465.863 115.199 460.06 117.659 457.398 122.318Z" fill="#E69766"/>
<path d="M462.226 118.034C462.226 118.034 456.397 126.573 445.891 130.772C439.147 133.462 436.886 136.272 435.385 138.797C432.028 144.321 434.444 152.656 440.888 160.145C446.547 166.704 412.266 171.644 424.879 157.815C430.137 152.056 407.868 134.692 433.744 123.318C444.01 118.818 448.988 107.264 469.86 116.864C466.624 118.768 462.226 118.034 462.226 118.034Z" fill="#E69766"/>
<path d="M457.398 117.904C457.398 117.904 454.426 126.433 442.429 128.803C432.018 130.857 428.666 138.557 429.972 145.151C430.627 148.301 432.239 151.172 434.589 153.37" stroke="#A26D4B" stroke-width="1.41" stroke-linecap="round" stroke-linejoin="round"/>
<path d="M470.256 144.416C470.256 144.416 471.036 139.417 473.713 140.087" stroke="#532210" stroke-width="1.41" stroke-linecap="round" stroke-linejoin="round"/>
<path d="M470.256 144.831C470.256 144.831 472.512 141.676 474.258 142.996" stroke="#532210" stroke-width="1.41" stroke-linecap="round" stroke-linejoin="round"/>
<path d="M468.675 159.29C468.675 159.29 463.642 168.169 453.986 169.559" stroke="#532210" stroke-width="1.41" stroke-linecap="round" stroke-linejoin="round"/>
<path d="M462.536 122.063C462.536 122.063 477.09 126.883 479.691 134.647C482.973 144.416 473.638 153.43 474.568 158.745C475.304 162.91 479.691 163.07 479.691 163.07" stroke="#A26D4B" stroke-width="1.41" stroke-linecap="round" stroke-linejoin="round"/>
<path d="M462.536 122.063C462.536 122.063 482.963 122.608 484.159 135.437C485.16 145.966 474.373 156.38 481.482 159.975" stroke="#A26D4B" stroke-width="1.41" stroke-linecap="round" stroke-linejoin="round"/>
<path d="M457.398 117.904C457.398 117.904 453.22 123.143 440.358 124.968C427.495 126.793 422.988 137.437 424.378 143.751C426.63 154.01 436.521 157.405 428.666 162.42" stroke="#A26D4B" stroke-width="1.41" stroke-linecap="round" stroke-linejoin="round"/>
<path d="M457.748 395.08C457.748 395.08 460.925 399.675 461.16 401.909C461.395 404.144 461.565 412.409 461.565 412.409L432.883 413.353L433.044 403.284C433.276 401.7 433.883 400.194 434.812 398.89C435.742 397.586 436.969 396.522 438.392 395.785C440.273 395.22 439.202 376.507 439.202 376.507H457.253L457.748 395.08Z" fill="#1D1E40"/>
<path d="M458.539 397.695C457.393 395.88 448.928 391.81 439.407 395.58" stroke="white" stroke-width="1.41" stroke-linecap="round" stroke-linejoin="round"/>
<path d="M443.535 376.992C443.535 376.992 447.752 382.076 452.435 384.931" stroke="white" stroke-width="1.41" stroke-linecap="round" stroke-linejoin="round"/>
<path d="M453.301 376.852C453.301 376.852 450.744 381.596 444.395 384.351" stroke="white" stroke-width="1.41" stroke-linecap="round" stroke-linejoin="round"/>
<path d="M445.151 385.401C445.151 385.401 449.909 391.595 453.491 392.225" stroke="white" stroke-width="1.41" stroke-linecap="round" stroke-linejoin="round"/>
<path d="M452.135 385.796C452.135 385.796 450.704 391.745 445.131 391.745" stroke="white" stroke-width="1.41" stroke-linecap="round" stroke-linejoin="round"/>
<path d="M407.748 352.169L401.645 361.668V367.837L392.029 382.081L342.855 349.679C342.855 349.679 348.553 343.549 350.885 341.625C353.216 339.7 359.475 337.125 368.305 341.24C371.643 342.866 374.652 345.095 377.18 347.814L389.443 344.614L396.032 335.615L407.748 352.189" fill="#1D1E40"/>
<path d="M345.571 344.209L396.717 379.436L393.88 383.636L341.949 349.634L345.571 344.209Z" fill="#565697"/>
<path d="M378.351 354.838C378.706 353.652 378.784 352.399 378.58 351.178C378.377 349.956 377.896 348.797 377.175 347.789" stroke="white" stroke-width="1.41" stroke-linecap="round" stroke-linejoin="round"/>
<path d="M395.476 337.805C395.476 337.805 394.916 344.004 396.717 346.919" stroke="white" stroke-width="1.41" stroke-linecap="round" stroke-linejoin="round"/>
<path d="M392.104 343.034L399.784 341.59" stroke="white" stroke-width="1.41" stroke-linecap="round" stroke-linejoin="round"/>
<path d="M391.049 343.674C391.049 343.674 387.967 349.434 390.203 352.714" stroke="white" stroke-width="1.41" stroke-linecap="round" stroke-linejoin="round"/>
<path d="M386.076 346.269L394.821 349.314" stroke="white" stroke-width="1.41" stroke-linecap="round" stroke-linejoin="round"/>
<path d="M384.855 346.969C384.855 346.969 381.013 351.359 380.552 354.423" stroke="white" stroke-width="1.41" stroke-linecap="round" stroke-linejoin="round"/>
<path d="M379.116 346.969C379.116 346.969 383.689 352.299 386.441 352.739" stroke="white" stroke-width="1.41" stroke-linecap="round" stroke-linejoin="round"/>
<path d="M463.912 410.219H428.576V415.038H463.912V410.219Z" fill="#565697"/>
<path d="M495.726 316.717C495.726 316.717 507.118 309.277 506.377 299.853C505.637 290.429 500.679 284.254 485.325 276.825C469.971 269.396 451.129 250.762 437.516 251.782C423.903 252.802 409.289 308.852 392.95 329.336C399.143 344.589 418.215 363.933 418.215 363.933L439.507 305.118L460.56 316.202L495.726 316.717Z" fill="#565697"/>
<path d="M443.6 280.105C443.6 280.105 433.484 280.365 432.033 291.689C430.582 303.013 431.072 378.591 431.072 378.591C431.072 378.591 457.813 380.516 470.596 374.737C466.018 353.549 457.088 293.539 454.942 288.559C452.795 283.579 450.339 280.585 443.6 280.105Z" fill="#565697"/>
<path d="M506.247 302.663C506.007 303.241 505.707 303.792 505.352 304.308" stroke="white" stroke-width="1.41" stroke-linecap="round" stroke-linejoin="round"/>
<path d="M502.615 307.002C499.613 308.872 494.5 309.332 486.39 302.663C473.618 292.164 462.326 287.509 456.763 285.664" stroke="white" stroke-width="1.41" stroke-linecap="round" stroke-linejoin="round" stroke-dasharray="7.74 7.74"/>
<path d="M454.897 285.074C453.721 284.734 453.08 284.574 453.08 284.574C453.08 284.574 453.211 285.234 453.436 286.414" stroke="white" stroke-width="1.41" stroke-linecap="round" stroke-linejoin="round"/>
<path d="M454.131 290.249C454.937 295.023 456.057 302.383 456.828 310.657C458.113 324.526 458.669 341.655 466.108 372.652" stroke="white" stroke-width="1.41" stroke-linecap="round" stroke-linejoin="round" stroke-dasharray="7.75 7.75"/>
<path d="M466.559 374.522C466.709 375.122 466.859 375.737 467.009 376.347" stroke="white" stroke-width="1.41" stroke-linecap="round" stroke-linejoin="round"/>
<path d="M409.61 354.398C409.93 353.858 410.24 353.314 410.56 352.769" stroke="white" stroke-width="1.41" stroke-linecap="round" stroke-linejoin="round"/>
<path d="M412.401 349.469C422.908 330.15 428.911 309.892 431.092 301.793" stroke="white" stroke-width="1.41" stroke-linecap="round" stroke-linejoin="round" stroke-dasharray="7.6 7.6"/>
<path d="M431.573 299.973C431.873 298.798 432.023 298.148 432.023 298.148" stroke="white" stroke-width="1.41" stroke-linecap="round" stroke-linejoin="round"/>
<path d="M460.56 316.192C460.56 316.192 456.518 292.114 453.095 284.604C452.07 282.36 447.432 280.105 442.049 280.985C432.953 282.485 432.043 298.133 432.043 298.133L431.007 328.831" stroke="#221F1F" stroke-width="1.41" stroke-linecap="round" stroke-linejoin="round"/>
</g>
<defs>
<clipPath id="clip0_1001_166">
<rect width="584" height="441" fill="white"/>
</clipPath>
</defs>
</svg>
