<svg width="644" height="416" viewBox="0 0 644 416" fill="none" xmlns="http://www.w3.org/2000/svg">
<path d="M63.0634 383.123C63.0634 383.123 -91.5287 264.388 84.126 135.404C292.7 -17.7334 484.119 -53.3304 590.703 96.7369C681.222 224.186 609.519 343.816 538.537 383.123C462.426 389.107 63.0634 383.123 63.0634 383.123Z" fill="#EDE4DD"/>
<path d="M372.148 266.312C372.148 266.312 380.993 332.272 297.903 361.154C273.599 369.929 258.08 379.498 258.08 379.498C258.08 379.498 273.899 326.717 305.733 309.189C356.938 280.971 372.148 266.312 372.148 266.312Z" stroke="white" stroke-width="2.81" stroke-linecap="round" stroke-linejoin="round"/>
<path d="M279.597 174.735C279.597 174.735 329.627 234.48 258.81 374.288C252.306 387.107 246.303 379.498 246.303 379.498C246.303 379.498 235.851 244.749 279.597 174.735Z" stroke="white" stroke-width="2.81" stroke-linecap="round" stroke-linejoin="round"/>
<path d="M262.683 374.289C262.683 374.289 271.688 342.437 315.249 322.908C358.81 303.38 372.143 266.323 372.143 266.323" stroke="white" stroke-width="2.81" stroke-linecap="round" stroke-linejoin="round"/>
<path d="M258.09 379.498C258.09 379.498 284.971 203.153 279.603 174.726" stroke="white" stroke-width="2.81" stroke-linecap="round" stroke-linejoin="round"/>
<path d="M335.861 341.487L296.683 333.192" stroke="white" stroke-width="2.81" stroke-linecap="round" stroke-linejoin="round"/>
<path d="M350.995 327.457L313.123 324.728" stroke="white" stroke-width="2.81" stroke-linecap="round" stroke-linejoin="round"/>
<path d="M360.726 313.959H331.594" stroke="white" stroke-width="2.81" stroke-linecap="round" stroke-linejoin="round"/>
<path d="M355.027 279.342L353.662 295.025L370.847 288.676" stroke="white" stroke-width="2.81" stroke-linecap="round" stroke-linejoin="round"/>
<path d="M342.855 288.676V305.524L367.195 300.28" stroke="white" stroke-width="2.81" stroke-linecap="round" stroke-linejoin="round"/>
<path d="M331.974 294.825L331.218 313.464" stroke="white" stroke-width="2.81" stroke-linecap="round" stroke-linejoin="round"/>
<path d="M317.41 302.645L313.123 323.888" stroke="white" stroke-width="2.81" stroke-linecap="round" stroke-linejoin="round"/>
<path d="M301.28 311.934L296.683 333.192" stroke="white" stroke-width="2.81" stroke-linecap="round" stroke-linejoin="round"/>
<path d="M271.708 189.215L279.623 204.014L288.048 190.3" stroke="white" stroke-width="2.81" stroke-linecap="round" stroke-linejoin="round"/>
<path d="M265.054 205.138L277.721 223.331L293.311 207.412" stroke="white" stroke-width="2.81" stroke-linecap="round" stroke-linejoin="round"/>
<path d="M261.231 216.477L275.66 240.46" stroke="white" stroke-width="2.81" stroke-linecap="round" stroke-linejoin="round"/>
<path d="M276.406 240.46L295.897 225.791" stroke="white" stroke-width="2.81" stroke-linecap="round" stroke-linejoin="round"/>
<path d="M296.683 244.685L273.304 264.683" stroke="white" stroke-width="2.81" stroke-linecap="round" stroke-linejoin="round"/>
<path d="M255.943 240.46L273.304 264.683" stroke="white" stroke-width="2.81" stroke-linecap="round" stroke-linejoin="round"/>
<path d="M271.678 281.266L295.062 261.338" stroke="white" stroke-width="2.81" stroke-linecap="round" stroke-linejoin="round"/>
<path d="M154.643 302.97C154.643 302.97 170.968 354.895 222.754 372.114C274.54 389.332 209.976 310.044 154.643 302.97Z" stroke="white" stroke-width="2.81" stroke-linecap="round" stroke-linejoin="round"/>
<path d="M154.643 302.979L249.83 377.073" stroke="white" stroke-width="2.81" stroke-linecap="round" stroke-linejoin="round"/>
<path d="M201.266 361.995L225.735 358.325" stroke="white" stroke-width="2.81" stroke-linecap="round" stroke-linejoin="round"/>
<path d="M168.441 306.109L174.465 318.408L159.226 313.959" stroke="white" stroke-width="2.81" stroke-linecap="round" stroke-linejoin="round"/>
<path d="M183.54 312.259L188.203 329.102L166.845 327.462" stroke="white" stroke-width="2.81" stroke-linecap="round" stroke-linejoin="round"/>
<path d="M198.254 320.678L197.409 336.271H173.099" stroke="white" stroke-width="2.81" stroke-linecap="round" stroke-linejoin="round"/>
<path d="M210.767 328.478L206.304 343.191L181.009 345.431" stroke="white" stroke-width="2.81" stroke-linecap="round" stroke-linejoin="round"/>
<path d="M220.963 338.562L217.346 350.725L189.439 353.355" stroke="white" stroke-width="2.81" stroke-linecap="round" stroke-linejoin="round"/>
<path d="M228.237 345.961L227.111 357.565" stroke="white" stroke-width="2.81" stroke-linecap="round" stroke-linejoin="round"/>
<path d="M291.099 287.921L268.451 304.14" stroke="white" stroke-width="2.81" stroke-linecap="round" stroke-linejoin="round"/>
<path d="M284.996 308.515L264.624 321.229" stroke="white" stroke-width="2.81" stroke-linecap="round" stroke-linejoin="round"/>
<path d="M275.61 352.126L300.675 360.165" stroke="white" stroke-width="2.81" stroke-linecap="round" stroke-linejoin="round"/>
<path d="M287.978 323.888L284.115 343.156L319.646 351.76" stroke="white" stroke-width="2.81" stroke-linecap="round" stroke-linejoin="round"/>
<path d="M277.036 338.562L275.61 352.125" stroke="white" stroke-width="2.81" stroke-linecap="round" stroke-linejoin="round"/>
<path d="M207.99 308.723H90.2796C88.3913 308.718 86.5818 307.967 85.2461 306.633C83.9104 305.299 83.157 303.491 83.1504 301.604V292.02C83.157 290.133 83.9104 288.325 85.2461 286.991C86.5818 285.657 88.3913 284.906 90.2796 284.9H207.995C209.883 284.906 211.693 285.657 213.028 286.991C214.364 288.325 215.117 290.133 215.124 292.02V301.604C215.115 303.491 214.36 305.298 213.024 306.631C211.687 307.965 209.878 308.717 207.99 308.723Z" fill="#E69866"/>
<path d="M63.3436 178.845C63.3436 178.845 83.8559 287.66 83.4956 289.835C86.4974 283.481 88.3085 284.901 109.606 284.901H145.207C145.207 284.901 132.42 182.509 130.604 173.685C128.788 164.861 121.643 146.912 100.226 145.777C77.7622 144.513 60.7971 152.982 63.3436 178.845Z" fill="#FDCA60"/>
<path d="M86.1423 146.867C73.0695 155.431 72.0689 160.816 73.5698 175.83C73.5698 175.83 93.8569 282.726 93.5167 284.905C93.5167 284.905 88.0134 284.596 86.1373 286.17C84.9849 287.171 84.0835 288.428 83.5057 289.84C83.5057 289.84 66.3555 191.663 63.1886 176.85C61.8678 158.391 73.0695 148.022 86.1423 146.867Z" fill="#E69866"/>
<path d="M84.8813 297.935H211.127" stroke="#62210F" stroke-width="1.41" stroke-linecap="round" stroke-linejoin="round" stroke-dasharray="16.87 16.87"/>
<path d="M192.046 309.014L219.577 411.675H213.829L185.877 309.014H192.046Z" fill="#1D1E40"/>
<path d="M216.405 308.374L243.941 411.035H238.193L210.236 308.374H216.405Z" fill="#1D1E40"/>
<path d="M116.881 309.014L89.3491 411.675H95.0975L123.049 309.014H116.881Z" fill="#1D1E40"/>
<path d="M95.5682 309.014L68.0317 411.675H73.7752L101.737 309.014H95.5682Z" fill="#1D1E40"/>
<path d="M213.118 370.484L215.114 395.067H231.409L234.391 367.214L213.118 370.484Z" fill="#EEB6AB"/>
<path d="M248.879 363.709L252.617 388.817L269.447 386.362L265.704 362.774L248.879 363.709Z" fill="#EEB6AB"/>
<path d="M246.423 388.423C246.198 392.112 245.468 405.421 246.483 407.496C256.489 408.121 306.794 407.496 306.794 407.496C306.794 407.496 304.903 398.687 291.915 395.142C278.927 391.597 275.405 385.713 273.034 380.993C270.663 376.274 264.779 382.173 263.598 384.528C262.418 386.883 252.972 390.427 250.591 386.893C249.29 384.943 248.174 385.318 247.429 386.048C246.809 386.686 246.45 387.533 246.423 388.423Z" fill="#76778E"/>
<path d="M308.445 407.501H244.717V412.121H308.445V407.501Z" fill="#1D1E40"/>
<path d="M275 397.122C276.056 394.492 278.682 391.327 284.616 392.347" stroke="white" stroke-width="1.41" stroke-linecap="round" stroke-linejoin="round"/>
<path d="M279.542 398.727C280.788 396.592 282.899 393.962 288.688 394.492" stroke="white" stroke-width="1.41" stroke-linecap="round" stroke-linejoin="round"/>
<path d="M270.962 395.297C271.313 393.437 273.964 388.708 280.268 389.752" stroke="white" stroke-width="1.41" stroke-linecap="round" stroke-linejoin="round"/>
<path d="M211.592 389.163C211.367 392.852 210.637 406.161 211.647 408.231C221.653 408.861 271.958 408.231 271.958 408.231C271.958 408.231 270.067 399.427 257.084 395.882C244.102 392.337 240.574 386.448 238.203 381.733C235.832 377.019 229.943 382.913 228.762 385.268C227.582 387.623 218.141 391.167 215.785 387.628C214.484 385.683 213.363 386.053 212.618 386.788C211.998 387.428 211.633 388.273 211.592 389.163Z" fill="#BABABA"/>
<path d="M273.609 408.24H209.881V412.86H273.609V408.24Z" fill="#1D1E40"/>
<path d="M240.169 397.866C241.225 395.236 243.856 392.072 249.785 393.092" stroke="white" stroke-width="1.41" stroke-linecap="round" stroke-linejoin="round"/>
<path d="M244.717 399.462C245.963 397.332 248.069 394.697 253.862 395.222" stroke="white" stroke-width="1.41" stroke-linecap="round" stroke-linejoin="round"/>
<path d="M236.127 396.037C236.477 394.172 239.129 389.442 245.433 390.492" stroke="white" stroke-width="1.41" stroke-linecap="round" stroke-linejoin="round"/>
<path d="M151.076 131.904C151.076 131.904 183.095 160.712 188.969 161.652C194.842 162.592 204.158 152.893 209.096 148.248C214.034 143.603 224.22 135.579 231.329 141.778C239.799 149.153 237.367 165.776 224.53 176.211C213.208 185.405 203.517 190.644 184.966 191.404C167.826 192.114 148.239 163.407 148.565 154.007C148.89 144.608 151.076 131.904 151.076 131.904Z" fill="#565797"/>
<path d="M137.683 262.528C137.683 262.528 132.605 285.611 182.97 284.766C233.335 283.921 228.727 284.766 228.727 284.766L231.664 371.604C231.664 371.604 231.854 376.198 275.09 372.423C276.676 330.577 269.141 280.216 265.764 257.933C265.244 254.496 263.637 251.315 261.177 248.857C258.718 246.398 255.536 244.791 252.096 244.269L150.646 228.976L134.271 231.915L137.683 262.528Z" fill="#A9C8D5"/>
<path d="M137.683 262.528C137.683 262.528 132.605 285.611 182.97 284.766C233.335 283.921 228.727 284.766 228.727 284.766L231.664 371.604C231.664 371.604 231.854 376.198 275.09 372.423C276.676 330.577 269.141 280.216 265.764 257.933C265.244 254.496 263.637 251.315 261.177 248.857C258.718 246.398 255.536 244.791 252.096 244.269L150.646 228.976L134.271 231.915L137.683 262.528Z" fill="#1D1E40"/>
<path d="M108.471 255.593C108.471 255.593 104.518 288.931 154.893 288.091C205.268 287.251 200.656 288.091 200.656 288.091L203.592 374.923C203.592 374.923 202.757 378.698 245.998 374.923C247.684 330.097 240.099 276.432 237.027 256.933C236.683 254.744 235.65 252.721 234.077 251.159C232.505 249.596 230.475 248.575 228.282 248.244L122.564 232.275L106.189 235.215L108.471 255.593Z" fill="#1D1E40"/>
<path d="M115.44 259.693C133.631 256.943 140.885 235.335 160.887 238.065C193.251 242.479 178.723 206.278 168.501 179.17C161.938 161.756 160.742 148.207 157.3 139.048C154.763 132.284 150.996 127.909 142.946 126.139C118.747 120.835 102.822 124.594 93.5067 145.638C84.1912 166.681 99.8956 192.954 93.5067 211.197C87.1179 229.441 97.249 262.433 115.44 259.693Z" fill="#565797"/>
<path d="M173.762 157.951L147.237 164.065L148.916 171.339L175.441 165.224L173.762 157.951Z" fill="white"/>
<path d="M197.218 225.861L156.374 235.27C155.818 235.399 155.241 235.418 154.678 235.324C154.115 235.231 153.575 235.027 153.091 234.725C152.607 234.422 152.187 234.027 151.856 233.562C151.524 233.097 151.288 232.571 151.161 232.015L137.893 174.52C137.764 173.964 137.746 173.388 137.84 172.826C137.934 172.263 138.138 171.724 138.44 171.24C138.743 170.756 139.138 170.337 139.603 170.006C140.068 169.675 140.594 169.438 141.15 169.31L181.999 159.901C182.555 159.772 183.132 159.754 183.695 159.848C184.258 159.942 184.797 160.146 185.281 160.448C185.765 160.751 186.185 161.145 186.517 161.61C186.848 162.075 187.084 162.6 187.212 163.156L200.475 220.651C200.605 221.207 200.624 221.783 200.53 222.346C200.436 222.909 200.232 223.448 199.93 223.932C199.627 224.416 199.232 224.835 198.766 225.166C198.301 225.497 197.775 225.733 197.218 225.861Z" fill="#1D1E40"/>
<path d="M90.485 161.236C90.1147 170.431 90.2498 191.474 88.1686 198.853C81.4145 222.781 94.9426 238.22 113.684 239.815C132.425 241.41 145.598 228.891 158.931 223.816C171.628 218.976 169.982 208.477 167.361 200.598C164.924 193.299 165.164 183.744 144.662 191.924C129.733 197.873 123.65 204.168 123.65 204.168C123.65 204.168 129.178 196.948 127.182 195.743C125.186 194.538 119.647 204.168 119.647 204.168C119.647 204.168 123.264 193.919 122.474 193.074C121.113 191.619 118.246 195.933 118.246 195.933C118.246 195.933 121.799 181.435 120.998 171.875" fill="#565797"/>
<path d="M91.0805 161.236C90.7153 170.431 90.8504 191.474 88.7692 198.853C82.0151 222.781 95.5432 238.22 114.284 239.815C133.026 241.41 146.198 228.891 159.531 223.816C172.219 218.976 170.628 208.477 167.981 200.598C165.545 193.299 165.785 183.744 145.278 191.924C130.354 197.873 124.29 204.168 124.29 204.168C124.29 204.168 129.819 196.948 127.822 195.743C125.826 194.538 120.278 204.168 120.278 204.168C120.278 204.168 123.895 193.919 123.11 193.074C121.744 191.619 118.882 195.933 118.882 195.933C118.882 195.933 122.434 181.435 121.629 171.875" stroke="#1D1E40" stroke-width="1.41" stroke-linecap="round" stroke-linejoin="round"/>
<path d="M129.729 259.854C129.729 259.854 195.643 264.243 208.105 267.353C214.369 268.928 213.108 343.506 215.109 371.039" stroke="white" stroke-width="1.41" stroke-linecap="round" stroke-linejoin="round" stroke-dasharray="14.24 14.24"/>
<path d="M142.846 122.205L145.658 135.959L128.413 124.615L142.846 122.205Z" fill="#76778E"/>
<path d="M123.099 130.194C123.099 130.194 125.651 136.248 133.28 135.958C140.219 135.698 140.219 132.459 140.219 132.459L134.166 126.959L123.099 130.194Z" fill="#1D1E40"/>
<path d="M131.619 115.33L114.544 116.22L115.269 122.489L130.754 125.499L131.619 115.33Z" fill="#76778E"/>
<path d="M138.063 130.964L142.846 122.205L125.265 117.32L123.665 124.125L138.063 130.964Z" fill="white"/>
<path d="M118.096 108.726C118.096 108.726 120.778 117.955 118.466 124.115C116.155 130.274 128.472 134.039 138.088 130.964C139.214 119.465 140.224 108.726 140.224 108.726C140.224 108.726 119.342 103.271 118.096 108.726Z" fill="#EEB6AB"/>
<path d="M132.645 128.749L133.826 132.059L129.138 132.454L123.665 127.944L132.645 128.749Z" fill="#8E8D8D"/>
<path d="M114.544 116.221L112.688 129.445L129.138 141.274L132.645 128.75L114.544 116.221Z" fill="white"/>
<path d="M155.298 135.648C155.298 135.648 162.222 147.722 163.723 159.781" stroke="#1D1E40" stroke-width="1.41" stroke-linecap="round" stroke-linejoin="round"/>
<path d="M246.398 373.389C246.398 373.389 240.059 256.029 232.89 251.399C221.623 244.145 169.187 240.715 169.187 240.715" stroke="white" stroke-width="1.41" stroke-linecap="round" stroke-linejoin="round"/>
<path d="M230.338 123.835C229.045 125.38 228.128 127.205 227.662 129.165C226.691 133.214 226.206 139.769 232.134 142.309C239.999 145.673 251.436 132.874 253.917 129.935C254.244 129.552 254.545 129.148 254.818 128.725C255.708 127.35 256.819 125.695 256.629 124.475C256.319 122.745 248.539 131.94 247.568 131.815C246.828 131.72 259.02 120.735 256.574 118.051C255.648 117.051 250.68 124.55 246.032 127.35C246.228 126.515 256.138 116.256 255.288 113.031C254.437 109.806 248.479 120.375 243.161 123.225C247.008 118.226 252.341 112.796 251.236 110.796C250.13 108.796 239.494 122.18 237.517 122.705C235.541 123.23 241.86 113.861 238.743 112.861C237.698 112.531 233.665 119.856 230.338 123.835Z" fill="#EEB6AB"/>
<path d="M175.3 180.43C173.482 181.446 171.925 182.87 170.753 184.59C169.551 186.295 168.635 188.185 168.041 190.184C167.26 193.084 158.595 199.448 161.362 202.123C163.633 208.808 172.514 200.533 173.929 200.868C181.329 202.623 192.911 196.604 195.832 194.989C196.287 194.737 196.725 194.457 197.143 194.149C198.509 193.149 197.218 191.569 196.938 191.544C195.132 191.354 188.998 194.469 188.998 194.469C188.998 194.469 192.445 192.659 196.688 189.934C199.124 188.359 197.303 185.82 194.857 187.035C192.15 188.384 190.579 189.189 189.153 189.589C189.454 189.144 192.465 187.944 196.468 185.285C199.049 183.57 198.494 180.645 194.507 182.16C192.005 183.1 190.589 184.205 187.908 184.555C190.029 183.255 192.38 181.97 194.462 180.745C197.824 178.77 196.228 176.005 192.125 177.945C188.023 179.885 183.7 182.09 182.635 181.98C180.538 181.755 190.074 175.031 187.437 172.926C186.562 172.211 179.978 177.815 175.3 180.43Z" fill="#EEB6AB"/>
<path d="M172.529 207.338L166.825 209.568C166.825 209.568 162.623 208.693 160.261 201.479C157.9 194.264 159.761 191.44 159.761 191.44L165.465 189.215L172.529 207.338Z" fill="white"/>
<path d="M239.939 145.289L236.732 150.483C236.732 150.483 232.85 152.318 226.626 147.983C220.402 143.649 220.157 140.324 220.157 140.324L223.364 135.109L239.939 145.289Z" fill="white"/>
<path d="M120.553 109.221C120.553 109.221 122.369 123.629 134.722 126.124C135.569 126.327 136.461 126.195 137.213 125.756C137.965 125.318 138.519 124.606 138.759 123.769L139.194 118.525L120.553 109.221Z" fill="#EEB6AB"/>
<path d="M126.281 71.6889C138.409 67.5443 150.916 76.9635 150.796 89.7674C150.696 101.831 147.854 120.635 138.329 121.65C134.176 122.09 121.183 119.58 118.052 105.541C113.499 105.496 111.883 99.4466 110.452 94.422C110.057 92.9471 117.031 74.8536 126.281 71.6889Z" fill="#EEB6AB"/>
<path d="M135.987 97.8122C136.979 97.8122 137.783 96.7109 137.783 95.3524C137.783 93.9939 136.979 92.8926 135.987 92.8926C134.995 92.8926 134.191 93.9939 134.191 95.3524C134.191 96.7109 134.995 97.8122 135.987 97.8122Z" fill="#010101"/>
<path d="M145.963 97.5571C146.853 97.5571 147.574 96.57 147.574 95.3523C147.574 94.1346 146.853 93.1475 145.963 93.1475C145.073 93.1475 144.352 94.1346 144.352 95.3523C144.352 96.57 145.073 97.5571 145.963 97.5571Z" fill="#010101"/>
<path d="M142.401 97.8125C142.401 97.8125 146.904 106.107 140.2 104.607" stroke="#62210F" stroke-width="1.49" stroke-miterlimit="10" stroke-linecap="round"/>
<path d="M138.909 87.9226C138.293 87.2576 135.712 86.5577 133.506 88.4525C131.299 90.3473 132.04 92.4122 132.95 92.1022C133.861 91.7922 135.402 90.0074 137.118 90.1474C139.264 90.3224 139.519 88.5875 138.909 87.9226Z" fill="#76778E"/>
<path d="M144.512 88.1027C145.253 87.5177 147.364 87.5177 148.79 89.3775C150.291 91.3424 149.88 92.8772 148.995 92.4073C148.109 91.9373 147.559 90.6274 145.773 90.5074C143.527 90.3575 143.782 88.6926 144.512 88.1027Z" fill="#76778E"/>
<path d="M113.049 100.457C111.548 97.1521 112.688 93.4574 115.49 92.8925C118.052 92.3925 120.118 97.0871 120.118 97.0871L120.728 85.5581C123.622 83.7826 126.317 81.7026 128.768 79.3536C132.665 75.579 141.691 82.7333 146.278 79.6886C148.983 77.9282 151.277 75.6056 153.002 72.8792C153.002 72.8792 136.563 57.6955 117.436 67.3796C110.492 70.8794 107.52 75.7389 106.535 80.4835C104.819 88.8078 109.256 96.8121 109.256 96.8121L119.097 115.216C119.097 115.216 119.037 109.216 118.072 105.171C116.05 104.786 114.594 103.757 113.049 100.457Z" fill="#76778E"/>
<g style="mix-blend-mode:multiply">
<path d="M144.663 106.986C144.663 106.986 141.2 109.311 135.192 108.486C137.008 110.661 139.419 112.106 142.011 111.146C144.688 110.136 144.663 106.986 144.663 106.986Z" fill="#BC826C"/>
</g>
<path d="M115.44 99.5271C115.44 99.5271 115.67 96.3724 118.747 99.2971C118.747 99.2971 115.975 92.3827 113.899 95.5975" stroke="#62210F" stroke-width="1.49" stroke-miterlimit="10" stroke-linecap="round"/>
<path d="M106.97 78.8541C106.97 78.8541 113.974 80.399 118.071 76.5893C125.976 69.27 130.634 78.3592 130.634 78.3592" stroke="white" stroke-width="1.41" stroke-miterlimit="10"/>
<path d="M106.655 80.0137C106.655 80.0137 115.385 81.6036 118.072 79.1638C121.489 76.0691 127.792 80.2537 127.792 80.2537" stroke="white" stroke-width="1.41" stroke-miterlimit="10"/>
<path d="M106.435 81.0684C106.435 81.0684 113.519 83.6481 117.381 82.0083C118.454 81.5246 119.659 81.4185 120.801 81.7073C121.942 81.996 122.951 82.6625 123.665 83.5981" stroke="white" stroke-width="1.41" stroke-miterlimit="10"/>
<path d="M137.984 103.216C139.782 103.216 141.24 101.759 141.24 99.9618C141.24 98.1642 139.782 96.707 137.984 96.707C136.185 96.707 134.727 98.1642 134.727 99.9618C134.727 101.759 136.185 103.216 137.984 103.216Z" stroke="#1D1E40" stroke-width="1.41" stroke-linecap="round" stroke-linejoin="round"/>
<path d="M147.869 103.216C149.668 103.216 151.126 101.759 151.126 99.9618C151.126 98.1642 149.668 96.707 147.869 96.707C146.07 96.707 144.612 98.1642 144.612 99.9618C144.612 101.759 146.07 103.216 147.869 103.216Z" stroke="#1D1E40" stroke-width="1.41" stroke-linecap="round" stroke-linejoin="round"/>
<path d="M119.663 95.5576L134.727 99.9622" stroke="#1D1E40" stroke-width="1.41" stroke-linecap="round" stroke-linejoin="round"/>
<path d="M141.206 99.5268C141.206 99.5268 141.861 98.2119 142.847 98.2119C143.992 98.2119 144.347 99.9568 144.347 99.9568" stroke="#1D1E40" stroke-width="1.41" stroke-linecap="round" stroke-linejoin="round"/>
<path d="M135.192 83.5979C135.192 83.5979 143.142 84.9828 146.449 82.333C142.72 82.9422 138.963 83.3644 135.192 83.5979Z" fill="#EEB6AB"/>
<path d="M134.196 85.0581C134.196 85.0581 143.872 87.9828 147.579 84.2432C142.846 86.093 134.196 85.0581 134.196 85.0581Z" fill="#EEB6AB"/>
<path d="M454.862 153.012C446.942 157.142 445.356 161.166 441.919 172.245C438.572 183.08 435.73 192.159 435.73 192.159L472.462 203.513C472.462 203.513 478.851 174.15 473.463 161.721C469.751 153.162 462.802 148.887 454.862 153.012Z" fill="#E65658"/>
<path d="M537.311 309.153L564.853 411.82H559.104L531.143 309.153H537.311Z" fill="#1D1E40"/>
<path d="M561.68 308.514L589.217 411.18H583.463L555.512 308.514H561.68Z" fill="#1D1E40"/>
<path d="M467.244 309.468L439.708 412.134H445.461L473.413 309.468H467.244Z" fill="#1D1E40"/>
<path d="M442.88 308.833L415.338 411.494H421.092L449.048 308.833H442.88Z" fill="#1D1E40"/>
<path d="M447.943 309.154H565.663C567.551 309.147 569.36 308.394 570.695 307.059C572.03 305.724 572.782 303.916 572.787 302.029V292.47C572.782 290.583 572.029 288.776 570.695 287.442C569.36 286.108 567.551 285.356 565.663 285.351H447.943C446.055 285.356 444.246 286.108 442.911 287.442C441.576 288.776 440.824 290.583 440.818 292.47V302.049C440.829 303.933 441.583 305.736 442.918 307.066C444.252 308.397 446.058 309.147 447.943 309.154Z" fill="#E69866"/>
<path d="M592.589 179.274C592.589 179.274 572.077 288.09 572.437 290.265C569.435 283.911 567.624 285.33 546.321 285.33H510.725C510.725 285.33 523.513 182.934 525.314 174.11C527.115 165.286 534.274 147.337 555.692 146.202C578.17 144.937 595.135 153.412 592.589 179.274Z" fill="#FDCA60"/>
<path d="M569.79 147.292C582.868 155.851 583.844 161.236 582.358 176.255C582.358 176.255 562.076 283.15 562.416 285.33C562.416 285.33 567.919 285.02 569.795 286.595C570.874 287.481 571.777 288.561 572.457 289.78C572.457 289.78 589.582 192.083 592.744 177.259C594.065 158.811 582.873 148.442 569.79 147.292Z" fill="#E69866"/>
<path d="M444.376 351.65L440.819 395.496H424.524L420.952 347.125L444.376 351.65Z" fill="#EEB6AB"/>
<path d="M417.174 242.704L456.658 230.43L466.624 211.927L461.021 199.978L446.122 195.373L444.876 218.176L411.641 236.44" fill="#EEB6AB"/>
<path d="M410.02 344.195L403.316 389.246L386.486 386.792L389.193 344.195H410.02Z" fill="#EEB6AB"/>
<path d="M518.25 262.972C518.25 262.972 523.343 286.06 472.963 285.215C422.583 284.37 427.206 285.215 427.206 285.215L424.744 357.864C424.744 357.864 418.976 359.409 375.715 355.634C380.813 313.933 386.771 280.676 390.143 258.403C390.663 254.966 392.269 251.785 394.728 249.327C397.186 246.868 400.368 245.26 403.807 244.739L505.262 229.415L521.642 232.355L518.25 262.972Z" fill="#565797"/>
<path d="M518.25 263.577C518.25 263.577 523.343 286.665 472.963 285.82C422.583 284.975 427.206 285.82 427.206 285.82L424.744 358.464C424.744 358.464 418.976 360.014 375.715 356.239C380.813 314.532 386.771 281.275 390.143 259.007C390.662 255.569 392.268 252.388 394.726 249.928C397.185 247.469 400.367 245.86 403.807 245.338L505.262 230.015L521.642 232.954L518.25 263.577Z" fill="#565797"/>
<path d="M547.462 256.018C547.462 256.018 551.415 289.35 501.04 288.515C450.665 287.68 455.277 288.515 455.277 288.515L459.28 358.164C459.28 358.164 447.293 361.464 404.072 357.689C409.635 309.154 415.839 276.866 418.911 257.358C419.256 255.169 420.29 253.148 421.862 251.585C423.435 250.023 425.464 249.002 427.656 248.669L504.041 237.135L533.369 232.705L544.741 236.04L547.462 256.018Z" fill="#565797"/>
<path d="M402.311 358.119C407.874 309.578 414.078 277.296 417.154 257.788C417.499 255.598 418.532 253.576 420.104 252.013C421.677 250.451 423.707 249.43 425.9 249.098L502.28 237.564L531.608 233.135L542.984 236.464" stroke="#1D1E40" stroke-width="1.41" stroke-linecap="round" stroke-linejoin="round"/>
<path d="M549.308 260.278C549.308 260.278 524.343 229.39 467.935 239.435C461.931 240.504 451.275 235.475 459.885 219.851C462.917 214.352 462.917 204.322 459.885 196.378C449.974 170.44 440.508 162.491 455.672 150.382C475.024 134.918 492.984 136.028 506.798 146.092C525.419 159.661 530.342 175.59 537.131 193.683C546.316 218.176 549.308 260.278 549.308 260.278Z" fill="#E65658"/>
<path d="M457.684 174.7C457.684 174.7 469.771 207.012 469.531 213.401C469.29 219.791 489.748 213.901 494.18 207.852C498.613 201.802 481.383 167.825 481.383 167.825L457.684 174.7Z" fill="#FDCA60"/>
<path d="M545.066 260.277C545.066 260.277 543.785 260.337 541.514 260.467" stroke="white" stroke-width="1.41" stroke-linecap="round" stroke-linejoin="round"/>
<path d="M534.269 260.867C511.01 262.167 457.523 265.367 447.828 267.792C442.084 269.231 442.404 308.208 440.958 335.906" stroke="white" stroke-width="1.41" stroke-linecap="round" stroke-linejoin="round" stroke-dasharray="14.51 14.51"/>
<path d="M440.753 339.525C440.678 340.74 440.598 341.92 440.513 343.075" stroke="white" stroke-width="1.41" stroke-linecap="round" stroke-linejoin="round"/>
<path d="M447.232 246.018C448.852 245.103 450.662 244.574 452.521 244.474C456.368 244.254 462.422 244.889 463.762 250.698C465.543 258.397 452.01 266.697 448.928 268.477C448.525 268.71 448.108 268.917 447.678 269.096C446.277 269.681 444.586 270.441 443.505 270.036C442.004 269.476 451.63 263.907 451.67 263.002C451.705 262.322 439.708 271.601 437.662 268.926C436.891 267.927 444.541 264.632 447.863 260.867C447.077 260.907 436.101 268.237 433.309 266.937C430.517 265.637 441.119 261.937 444.576 257.582C439.408 260.262 433.569 264.217 431.938 262.882C430.307 261.547 444.236 254.073 445.026 252.383C445.817 250.693 436.266 254.883 435.871 251.883C435.741 250.848 443.07 248.388 447.232 246.018Z" fill="#EEB6AB"/>
<path d="M411.641 236.439C404.057 237.084 395.947 242.489 393.54 244.439C393.195 244.714 390.108 248.333 390.373 250.243C390.558 251.593 396.557 245.079 397.428 245.244C398.093 245.364 387.997 250.598 389.228 254.468C389.563 255.523 394.856 249.968 398.948 247.664C395.296 250.943 388.522 255.253 389.753 258.163C390.418 259.977 395.466 253.488 400.299 251.348C396.157 254.948 391.359 258.498 392.109 260.127C392.86 261.757 404.267 252.128 406.118 251.828C407.969 251.528 401.045 258.378 403.761 259.358C404.667 259.682 409.265 254.283 412.797 251.428C414.134 250.376 415.205 249.025 415.924 247.484C416.639 245.909 417.319 243.824 417.124 241.839" fill="#EEB6AB"/>
<path d="M406.573 346.435C415.545 347.703 424.593 348.355 433.654 348.384C449.999 348.384 453.891 347.424 453.891 347.424" stroke="white" stroke-width="1.41" stroke-linecap="round" stroke-linejoin="round"/>
<path d="M378.471 345.655C378.471 345.655 385.951 348.575 400.349 346.905" stroke="white" stroke-width="1.41" stroke-linecap="round" stroke-linejoin="round"/>
<path d="M463.922 219.801C463.922 219.801 483.039 224.845 501.525 206.387" stroke="#661715" stroke-width="1.41" stroke-miterlimit="10"/>
<path d="M392.76 408.3V413.299H412.271L412.176 404.8H408.204C408.204 404.8 409.204 392.736 406.293 385.967C403.381 379.197 407.048 368.873 407.048 368.873H384.755C384.755 368.873 384.755 377.727 382.704 380.372C380.652 383.017 372.993 392.141 371.807 395.086C370.622 398.031 352.966 400.38 350.905 406.265H347.958V413.309H380.978L392.76 408.3Z" fill="#A26E4C"/>
<path d="M392.76 408.3V413.299H412.271L412.176 404.8H408.204C408.204 404.8 409.204 392.736 406.293 385.967C403.381 379.197 407.048 368.873 407.048 368.873H384.755C384.755 368.873 384.755 377.727 382.704 380.372C380.652 383.017 372.993 392.141 371.807 395.086C370.622 398.031 352.966 400.38 350.905 406.265H347.958V413.309H380.978L392.76 408.3Z" fill="#9E4F4A"/>
<path d="M392.76 408.299V413.299H412.271L412.226 409.449L412.176 404.775H408.204C408.204 404.775 402.656 404.635 391.949 405.084C382.824 408.499 367.435 406.509 350.925 406.244H347.978V413.309H380.998L392.76 408.299Z" fill="#9E4F4A"/>
<path opacity="0.52" d="M392.019 408.299V413.299H411.531L411.491 409.449L411.441 404.775H407.469C407.469 404.775 401.915 404.635 391.209 405.084C382.089 408.499 366.694 406.509 350.185 406.244H347.238V413.309H380.257L392.019 408.299Z" fill="#9E4F4A"/>
<path d="M394.206 372.697L384.28 373.792L392.145 382.116L381.794 381.527L386.852 389.766L375.815 389.071L380.128 398.05L369.611 396.695" stroke="#431616" stroke-width="1.41" stroke-linecap="round" stroke-linejoin="round"/>
<path d="M406.573 390.061C406.573 390.061 398.493 392.46 396.897 398.96" stroke="#431616" stroke-width="1.41" stroke-linecap="round" stroke-linejoin="round"/>
<path d="M393.646 409.64H412.222" stroke="black" stroke-width="1.19" stroke-miterlimit="10"/>
<path d="M387.447 409.64H347.988" stroke="#431616" stroke-width="1.41" stroke-linecap="round" stroke-linejoin="round"/>
<path d="M430.468 408.299V413.299H449.979L449.884 404.8H445.912C445.912 404.8 446.937 392.736 443.996 385.966C441.054 379.197 444.791 368.848 444.791 368.848H422.508C422.508 368.848 422.508 377.702 420.462 380.347C418.415 382.991 410.771 392.121 409.565 395.065C408.359 398.01 390.719 400.36 388.658 406.244H385.711V413.309H418.731L430.468 408.299Z" fill="#9E4F4A"/>
<path opacity="0.52" d="M430.467 408.299V413.299H449.979L449.934 409.449L449.884 404.775H445.911C445.911 404.775 440.363 404.635 429.657 405.084C420.531 408.499 405.142 406.509 388.632 406.244H385.686V413.309H418.705L430.467 408.299Z" fill="#9E4F4A"/>
<path d="M444.291 390.061C444.291 390.061 433.984 391.825 433.984 403.589" stroke="#431616" stroke-width="1.41" stroke-linecap="round" stroke-linejoin="round"/>
<path d="M431.378 409.64H449.954" stroke="#431616" stroke-width="1.41" stroke-linecap="round" stroke-linejoin="round"/>
<path d="M425.179 409.64H385.716" stroke="#431616" stroke-width="1.41" stroke-linecap="round" stroke-linejoin="round"/>
<path d="M388.663 406.244C388.663 406.244 391.284 397.605 409.22 395.745L417.855 398.065L413.552 389.066L424.584 389.761L419.526 381.526L429.877 382.116L422.012 373.802L431.938 372.702" stroke="#431616" stroke-width="1.41" stroke-linecap="round" stroke-linejoin="round"/>
<path d="M385.451 411.399L385.716 406.244H388.668" stroke="#431616" stroke-width="1.41" stroke-linecap="round" stroke-linejoin="round"/>
<path d="M424.279 106.415C424.279 106.415 417.88 128.004 428.081 131.088C438.282 134.173 442.79 123.939 442.79 123.939C442.79 123.939 434.67 99.9859 429.942 100.771C425.214 101.556 424.279 106.415 424.279 106.415Z" fill="#9E4F4A"/>
<path d="M470.461 175.734C470.461 175.734 464.668 213.796 484.254 206.382C500.454 200.242 470.461 175.734 470.461 175.734Z" stroke="white" stroke-width="1.41" stroke-miterlimit="10"/>
<path d="M470.461 175.734L483.439 206.667" stroke="white" stroke-width="1.41" stroke-miterlimit="10"/>
<path d="M469.666 184.829L475.614 188.028L476.945 181.629" stroke="white" stroke-width="1.41" stroke-miterlimit="10"/>
<path d="M469.806 191.533L478.206 194.193L480.952 185.818" stroke="white" stroke-width="1.41" stroke-miterlimit="10"/>
<path d="M470.461 196.892L480.407 199.447L484.425 190.043" stroke="white" stroke-width="1.41" stroke-miterlimit="10"/>
<path d="M471.952 201.677L482.969 205.542L487.381 194.683" stroke="white" stroke-width="1.41" stroke-miterlimit="10"/>
<path d="M463.847 253.098C475.249 250.099 511.511 236.775 513.587 232.705C515.588 228.775 517.629 188.134 517.629 188.134L496.887 189.944L498.518 223.296L458.754 245.234" fill="#EEB6AB"/>
<path d="M491.729 147.178C485.955 153.992 486 158.322 487.011 169.876C488.012 181.165 488.797 190.649 488.797 190.649L527.1 187.304C527.1 187.304 524.678 173.485 520.056 161.711" fill="#E65658"/>
<path d="M491.729 147.178C485.955 153.992 486 158.322 487.011 169.876C488.012 181.165 488.797 190.649 488.797 190.649L527.1 187.304C527.1 187.304 524.678 173.485 520.056 161.711" stroke="#661715" stroke-width="1.41" stroke-linecap="round" stroke-linejoin="round"/>
<path d="M447.733 160.596C447.733 160.596 444.666 170.095 452.796 181.989C459.3 191.488 461.026 199.987 461.026 199.987" stroke="#661715" stroke-width="1.41" stroke-linecap="round" stroke-linejoin="round"/>
<path d="M463.002 120.24C463.002 120.24 470.131 132.144 477.01 139.828C484.14 147.792 467.004 158.606 461.931 152.207C456.803 137.708 447.143 133.549 447.143 133.549C447.143 133.549 459.445 115.91 463.002 120.24Z" fill="#EEB6AB"/>
<path d="M462.151 118.484C462.151 118.484 471.747 141.707 459.99 147.157C457.684 143.507 457.684 142.312 457.684 142.312L461.091 119.419L462.151 118.484Z" fill="#EEB6AB"/>
<path d="M437.372 96.6366C424.974 99.9114 420.897 114.74 428.101 125.329C434.88 135.328 446.612 149.327 455.082 144.883C458.79 142.938 467.43 134.798 461.851 120.995C465.604 118.43 464.748 111.745 463.142 106.776C462.672 105.316 446.822 94.1319 437.372 96.6366Z" fill="#EEB6AB"/>
<path d="M444.024 124.311C444.915 123.716 444.978 122.246 444.163 121.026C443.349 119.807 441.966 119.3 441.074 119.895C440.182 120.49 440.12 121.96 440.934 123.18C441.749 124.399 443.132 124.906 444.024 124.311Z" fill="#010101"/>
<path d="M435.305 129.906C436.107 129.371 436.163 128.048 435.43 126.95C434.697 125.852 433.452 125.396 432.65 125.931C431.848 126.466 431.792 127.789 432.525 128.887C433.259 129.985 434.503 130.441 435.305 129.906Z" fill="#010101"/>
<path d="M436.526 123.939C436.526 123.939 436.937 137.548 443.451 131.229" stroke="#62210F" stroke-width="1.49" stroke-miterlimit="10" stroke-linecap="round"/>
<path d="M442.79 116.39C442.62 117.275 440.854 118.855 437.977 118.43C435.1 118.005 434.585 116.25 435.515 116.025C436.446 115.8 438.712 116.495 440.088 115.46C441.789 114.17 442.94 115.485 442.79 116.39Z" fill="#9E4F4A"/>
<path d="M429.382 125.484C430.323 125.484 431.778 124.194 431.773 122.37C431.773 119.87 430.673 118.87 430.203 119.765C429.732 120.66 430.638 121.93 429.237 123.055C427.486 124.444 428.647 125.484 429.382 125.484Z" fill="#9E4F4A"/>
<g style="mix-blend-mode:multiply">
<path d="M442.535 138.273C442.761 137.444 443.159 136.672 443.704 136.006C444.249 135.341 444.928 134.799 445.697 134.413C447.007 133.814 449.629 133.174 451.735 133.804C450.66 136.143 448.893 137.533 446.197 138.168C443.415 138.828 442.535 138.273 442.535 138.273Z" fill="#BC826C"/>
</g>
<path d="M461.096 112.985C461.096 112.985 459.67 110.775 458.769 114.16C458.769 114.16 458.044 108.006 460.951 109.66" stroke="#62210F" stroke-width="1.49" stroke-miterlimit="10" stroke-linecap="round"/>
<path d="M427.411 109.376C427.411 109.376 433.875 114.935 444.531 113.775C455.187 112.615 455.823 111.025 455.823 111.025C455.823 111.025 458.684 102.851 462.927 108.271C466.309 112.595 463.002 120.24 463.002 120.24L465.308 123.939C465.308 123.939 464.308 113.815 465.308 109.441C466.309 105.066 467.935 104.636 467.935 104.636C467.935 104.636 455.763 83.9377 438.522 91.752C421.282 99.5664 424.549 110.91 424.549 110.91L427.411 109.376Z" fill="#9E4F4A"/>
<path d="M455.672 298.729H572.367" stroke="#62210F" stroke-width="1.41" stroke-linecap="round" stroke-linejoin="round" stroke-dasharray="16.87 16.87"/>
<path d="M643.81 412.09H0.190918V415.315H643.81V412.09Z" fill="#EDE4DD"/>
<path d="M455.672 110.541C440.608 112.876 436.161 110.661 429.302 106.961C426.665 105.541 424.549 108.271 424.549 108.271" stroke="#60361D" stroke-width="1.41" stroke-linecap="round" stroke-linejoin="round"/>
<path d="M425.66 103.646C425.66 103.646 427.936 101.866 431.773 103.246C435.611 104.626 439.728 110.785 456.288 109.366" stroke="#60361D" stroke-width="1.41" stroke-linecap="round" stroke-linejoin="round"/>
<path d="M427.881 99.9864C427.881 99.9864 434.175 96.1318 440.113 101.221C446.052 106.311 457.333 108.161 457.333 108.161" stroke="#60361D" stroke-width="1.41" stroke-linecap="round" stroke-linejoin="round"/>
</svg>
