<svg width="134" height="99" viewBox="0 0 134 99" fill="none" xmlns="http://www.w3.org/2000/svg">
<g clip-path="url(#clip0_478_10139)">
<rect x="23.0508" y="0.179688" width="84" height="84" rx="42" fill="url(#paint0_linear_478_10139)"/>
<path d="M50.5308 50.6797V38.7397C50.5308 36.1797 51.2108 34.1797 52.5708 32.7397C53.9708 31.2997 56.0108 30.5797 58.6908 30.5797H61.8708V35.7997H59.2908C58.2108 35.7997 57.3908 36.0997 56.8308 36.6997C56.3108 37.2597 56.0508 38.0397 56.0508 39.0397V40.8397H60.6108V50.6797H50.5308ZM67.5708 50.6797V38.7397C67.5708 36.1797 68.2508 34.1797 69.6108 32.7397C71.0108 31.2997 73.0508 30.5797 75.7308 30.5797H78.9108V35.7997H76.3308C75.2508 35.7997 74.4308 36.0997 73.8708 36.6997C73.3508 37.2597 73.0908 38.0397 73.0908 39.0397V40.8397H77.6508V50.6797H67.5708Z" fill="white"/>
</g>
<path d="M118.751 72.8294L117.521 69.1801L116.287 72.8294C114.699 77.5268 111.403 81.4588 107.051 83.8374C111.403 86.2174 114.699 90.1467 116.287 94.8467L117.521 98.4961L118.751 94.8467C120.339 90.1467 123.637 86.2174 127.987 83.8374C123.637 81.4588 120.339 77.5268 118.751 72.8294Z" fill="#FAB445"/>
<path d="M128.977 13.0248L128.353 11.1768L127.729 13.0248C126.925 15.4048 125.254 17.3954 123.052 18.5994C125.254 19.8061 126.925 21.7955 127.729 24.1755L128.353 26.0234L128.977 24.1755C129.781 21.7955 131.452 19.8061 133.654 18.5994C131.452 17.3954 129.781 15.4048 128.977 13.0248Z" fill="#7DB95A"/>
<path d="M9.44948 45.0189L8.48945 42.1802L7.5321 45.0189C6.2961 48.6749 3.73214 51.7323 0.346809 53.5829C3.73214 55.4349 6.2961 58.4923 7.5321 62.1483L8.48945 64.9883L9.44948 62.1483C10.6841 58.4923 13.2494 55.4349 16.6348 53.5829C13.2494 51.7323 10.6841 48.6749 9.44948 45.0189Z" fill="#7DB95A"/>
<defs>
<linearGradient id="paint0_linear_478_10139" x1="107.5" y1="42.1797" x2="23.4998" y2="42.1797" gradientUnits="userSpaceOnUse">
<stop stop-color="#FE8B7C"/>
<stop offset="1" stop-color="#FDC344"/>
</linearGradient>
<clipPath id="clip0_478_10139">
<rect x="23.0508" y="0.179688" width="84" height="84" rx="42" fill="white"/>
</clipPath>
</defs>
</svg>
