<svg width="24" height="18" viewBox="0 0 24 18" fill="none" xmlns="http://www.w3.org/2000/svg">
<path fill-rule="evenodd" clip-rule="evenodd" d="M0 2C0 0.89543 0.895431 0 2 0H22C23.1046 0 24 0.895431 24 2V16C24 17.1046 23.1046 18 22 18H2C0.89543 18 0 17.1046 0 16V2Z" fill="white"/>
<path d="M12.002 14.596C15.0921 14.596 17.5971 12.091 17.5971 9.00084C17.5971 5.91073 15.0921 3.4057 12.002 3.4057C8.91189 3.4057 6.40686 5.91073 6.40686 9.00084C6.40686 12.091 8.91189 14.596 12.002 14.596Z" fill="#BC002D"/>
<path fill-rule="evenodd" clip-rule="evenodd" d="M22 0.7H2C1.28203 0.7 0.7 1.28203 0.7 2V16C0.7 16.718 1.28203 17.3 2 17.3H22C22.718 17.3 23.3 16.718 23.3 16V2C23.3 1.28203 22.718 0.7 22 0.7ZM2 0C0.895431 0 0 0.89543 0 2V16C0 17.1046 0.89543 18 2 18H22C23.1046 18 24 17.1046 24 16V2C24 0.895431 23.1046 0 22 0H2Z" fill="#DFDFDF"/>
</svg>
