<svg width="24" height="18" viewBox="0 0 24 18" fill="none" xmlns="http://www.w3.org/2000/svg">
<path fill-rule="evenodd" clip-rule="evenodd" d="M0 2.77125V4.15875H24V2.77125H0ZM22 0H2C1.10908 0 0.354213 0.582541 0.0955319 1.3875H23.9045C23.6458 0.582541 22.8909 0 22 0ZM24 5.53875H0V6.92625H24V5.53875ZM24 8.30625H0V9.69375H24V8.30625ZM24 11.0813H0V12.4613H24V11.0813ZM24 13.845H0V15.2325H24V13.845ZM23.9045 16.6125H0.0955321C0.354213 17.4175 1.10908 18 2 18H22C22.8909 18 23.6458 17.4175 23.9045 16.6125Z" fill="#BD3D44"/>
<path fill-rule="evenodd" clip-rule="evenodd" d="M0 1.38745H24V2.7712H0V1.38745ZM0 4.15495H24V5.5387H0V4.15495ZM0 6.92245H24V8.30995H0V6.92245ZM0 9.6937H24V11.0812H0V9.6937ZM0 12.4612H24V13.8487H0V12.4612ZM0 15.2287H24V16.6162H0V15.2287Z" fill="white"/>
<path fill-rule="evenodd" clip-rule="evenodd" d="M2 0C0.895431 0 0 0.89543 0 2V9.69375H13.68V0H2Z" fill="#192F5D"/>
<path fill-rule="evenodd" clip-rule="evenodd" d="M1.14008 0.412476L1.26758 0.798726H1.66508L1.34258 1.03498L1.46633 1.42123L1.14008 1.18123L0.817578 1.41748L0.937578 1.03498L0.611328 0.798726H1.02008L1.14008 0.412476ZM3.42008 0.412476L3.54383 0.798726H3.94883L3.62258 1.03498L3.74258 1.42123L3.42008 1.18123L3.09383 1.41748L3.21758 1.03498L2.89508 0.798726H3.29258L3.42008 0.412476ZM5.70008 0.412476L5.82383 0.798726H6.22508L5.90258 1.03498L6.02633 1.42123L5.70008 1.18123L5.37383 1.41748L5.49758 1.03498L5.17133 0.798726H5.57633L5.70008 0.412476ZM7.98008 0.412476L8.10383 0.798726H8.50883L8.18258 1.03498L8.30633 1.42123L7.98008 1.18123L7.65383 1.41748L7.78133 1.03498L7.45133 0.798726H7.85258L7.98008 0.412476ZM10.2601 0.412476L10.3838 0.798726H10.7851L10.4626 1.03498L10.5863 1.42123L10.2601 1.18123L9.93383 1.41748L10.0576 1.03498L9.73508 0.798726H10.1363L10.2601 0.412476ZM12.5401 0.412476L12.6638 0.798726H13.0688L12.7388 1.03498L12.8663 1.42123L12.5401 1.18123L12.2138 1.41748L12.3413 1.03498L12.0113 0.798726H12.4163L12.5401 0.412476ZM2.28008 1.38748L2.40383 1.76998H2.81258L2.48633 2.00248L2.60633 2.38873L2.28758 2.15248L1.96133 2.38873L2.07758 2.00248L1.76258 1.76998H2.16383L2.28008 1.38748ZM4.56008 1.38748L4.68758 1.76998H5.08883L4.75883 2.00248L4.88633 2.38873L4.56008 2.15248L4.23383 2.38873L4.35758 2.00248L4.03133 1.76998H4.43633L4.56008 1.38748ZM6.84008 1.38748L6.96383 1.76998H7.36883L7.04258 2.00248L7.16633 2.38873L6.84008 2.15248L6.51383 2.38873L6.63758 2.00248L6.31508 1.76998H6.71258L6.84008 1.38748ZM9.12008 1.38748L9.24758 1.76998H9.64883L9.31883 2.00248L9.44633 2.38873L9.12008 2.15248L8.79758 2.38873L8.91758 2.00248L8.59133 1.76998H9.00008L9.12008 1.38748ZM11.4001 1.38748L11.5238 1.76998H11.9288L11.6026 2.00248L11.7263 2.38873L11.4001 2.15248L11.0738 2.38873L11.1976 2.00248L10.8751 1.76998H11.2763L11.4001 1.38748ZM1.14008 2.34748L1.26758 2.73748H1.66508L1.34258 2.97373L1.46633 3.35623L1.14008 3.11998L0.817578 3.35623L0.937578 2.97373L0.611328 2.73748H1.02008L1.14008 2.34748ZM3.42008 2.34748L3.54383 2.73748H3.94883L3.62258 2.97373L3.74258 3.35623L3.42008 3.11998L3.09383 3.35623L3.21758 2.96998L2.89508 2.73373H3.29258L3.42008 2.34748ZM5.70008 2.34748L5.82383 2.73373H6.22508L5.90258 2.96998L6.02633 3.35248L5.70008 3.11623L5.37383 3.35248L5.49758 2.96623L5.17133 2.72998H5.57633L5.70008 2.34748ZM7.98008 2.34748L8.10383 2.73373H8.50883L8.18258 2.96998L8.30633 3.35248L7.98008 3.11623L7.65383 3.35248L7.78133 2.96623L7.45133 2.72998H7.85258L7.98008 2.34748ZM10.2601 2.34748L10.3838 2.73373H10.7851L10.4626 2.96998L10.5863 3.35248L10.2601 3.11623L9.93383 3.35248L10.0576 2.96623L9.73508 2.72998H10.1363L10.2601 2.34748ZM12.5401 2.34748L12.6638 2.73373H13.0688L12.7388 2.96998L12.8663 3.35248L12.5401 3.11623L12.2138 3.35248L12.3413 2.96623L12.0113 2.72998H12.4163L12.5401 2.34748ZM2.28008 3.32248L2.40383 3.70498H2.81258L2.48633 3.94123L2.61008 4.32748L2.28383 4.08748L1.95758 4.32373L2.08133 3.94123L1.75883 3.70498H2.16008L2.28008 3.32248ZM4.56008 3.32248L4.68758 3.70498H5.08883L4.75883 3.94123L4.88633 4.32748L4.56008 4.08748L4.23383 4.32373L4.35758 3.94123L4.03133 3.70498H4.43633L4.56008 3.32248ZM6.84008 3.32248L6.96383 3.70498H7.36883L7.04258 3.94123L7.16633 4.32748L6.84008 4.08748L6.51383 4.32373L6.63758 3.94123L6.31508 3.70498H6.71258L6.84008 3.32248ZM9.12008 3.32248L9.24758 3.70498H9.64883L9.32258 3.94123L9.44633 4.32748L9.12008 4.08748L8.79758 4.32373L8.91758 3.94123L8.59133 3.70498H9.00008L9.12008 3.32248ZM11.4001 3.32248L11.5238 3.70498H11.9288L11.6026 3.94123L11.7263 4.32748L11.4001 4.08748L11.0738 4.32373L11.1976 3.94123L10.8751 3.70498H11.2763L11.4001 3.32248ZM1.14008 4.29373L1.26758 4.67623H1.66508L1.34258 4.91248L1.46633 5.29873L1.14008 5.05873L0.817578 5.29498L0.937578 4.91248L0.611328 4.67623H1.02008L1.14008 4.29373ZM3.42008 4.29373L3.54383 4.67623H3.94883L3.62258 4.91248L3.74258 5.29498L3.42008 5.05873L3.09383 5.29498L3.21758 4.91248L2.89508 4.67623H3.29258L3.42008 4.29373ZM5.70008 4.29373L5.82383 4.67623H6.22508L5.90258 4.91248L6.02633 5.29873L5.70008 5.05873L5.37383 5.29498L5.49758 4.91248L5.17133 4.67623H5.57633L5.70008 4.29373ZM7.98008 4.29373L8.10383 4.67623H8.50883L8.18258 4.91248L8.30633 5.29873L7.98008 5.05873L7.65383 5.29498L7.78133 4.91248L7.45133 4.67623H7.85258L7.98008 4.29373ZM10.2601 4.29373L10.3838 4.67623H10.7851L10.4626 4.91248L10.5863 5.29873L10.2601 5.05873L9.93383 5.29498L10.0576 4.91248L9.73508 4.67623H10.1363L10.2601 4.29373ZM12.5401 4.29373L12.6638 4.67623H13.0688L12.7388 4.91248L12.8663 5.29873L12.5401 5.05873L12.2138 5.29498L12.3376 4.91248L12.0076 4.67623H12.4126L12.5401 4.29373ZM2.28008 5.26123L2.40383 5.64748H2.81258L2.48633 5.87998L2.61008 6.26623L2.28383 6.02623L1.95758 6.26623L2.08133 5.87998L1.75883 5.64373H2.16008L2.28008 5.26123ZM4.56008 5.26123L4.68758 5.64748H5.08883L4.75883 5.87998L4.88633 6.26623L4.56008 6.02623L4.23383 6.26623L4.35758 5.87998L4.03133 5.64373H4.43633L4.56008 5.26123ZM6.84008 5.26123L6.96383 5.64748H7.36883L7.04258 5.87998L7.16633 6.26623L6.84008 6.02623L6.51383 6.26623L6.63758 5.87998L6.31508 5.64373H6.71258L6.84008 5.26123ZM9.12008 5.26123L9.24758 5.64748H9.64883L9.32258 5.87998L9.44633 6.26623L9.12008 6.02623L8.79758 6.26623L8.91758 5.87998L8.59133 5.64373H9.00008L9.12008 5.26123ZM11.4001 5.26123L11.5238 5.64748H11.9288L11.6026 5.87998L11.7263 6.26623L11.4001 6.02623L11.0738 6.26623L11.1976 5.87998L10.8751 5.64373H11.2763L11.4001 5.26123ZM1.14008 6.22873L1.26758 6.61498H1.66508L1.34258 6.85123L1.46633 7.22998L1.14008 6.99748L0.817578 7.22998L0.937578 6.84748L0.611328 6.61123H1.02008L1.14008 6.22873ZM3.42008 6.22873L3.54383 6.61498H3.94883L3.62258 6.85123L3.74633 7.22998L3.42008 6.99748L3.09383 7.22998L3.22133 6.84748L2.89508 6.61123H3.29258L3.42008 6.22873ZM5.70008 6.22873L5.82383 6.61498H6.22508L5.90258 6.85123L6.02633 7.22998L5.70008 6.99748L5.37383 7.22998L5.49758 6.84748L5.17133 6.61123H5.57633L5.70008 6.22873ZM7.98008 6.22873L8.10383 6.61498H8.50883L8.18258 6.85123L8.30633 7.22998L7.98008 6.99748L7.65383 7.22998L7.78133 6.84748L7.45133 6.61123H7.85258L7.98008 6.22873ZM10.2601 6.22873L10.3838 6.61498H10.7851L10.4626 6.85123L10.5863 7.22998L10.2601 6.99748L9.93383 7.22998L10.0576 6.84748L9.73508 6.61123H10.1363L10.2601 6.22873ZM12.5401 6.22873L12.6638 6.61498H13.0688L12.7388 6.85123L12.8663 7.22998L12.5401 6.99748L12.2138 7.22998L12.3413 6.84748L12.0113 6.61123H12.4163L12.5401 6.22873ZM2.28008 7.19998L2.40383 7.58248H2.81258L2.48633 7.81873L2.61008 8.20498L2.28383 7.96498L1.95758 8.20123L2.08133 7.81873L1.75883 7.58248H2.16008L2.28008 7.19998ZM4.56008 7.19998L4.68758 7.58248H5.08883L4.75883 7.81873L4.88633 8.20498L4.56008 7.96498L4.23383 8.20123L4.35758 7.81873L4.03133 7.58248H4.43633L4.56008 7.19998ZM6.84008 7.19998L6.96383 7.58248H7.36883L7.04258 7.81873L7.16633 8.20498L6.84008 7.96498L6.51383 8.20123L6.63758 7.81873L6.31508 7.58248H6.71258L6.84008 7.19998ZM9.12008 7.19998L9.24758 7.58248H9.64883L9.32258 7.81873L9.44633 8.20498L9.12008 7.96498L8.79758 8.20123L8.91758 7.81873L8.59133 7.58248H9.00008L9.12008 7.19998ZM11.4001 7.19998L11.5238 7.58248H11.9288L11.6026 7.81873L11.7263 8.20498L11.4001 7.96498L11.0738 8.20123L11.1976 7.81873L10.8751 7.58248H11.2763L11.4001 7.19998ZM1.14008 8.17123L1.26758 8.55373H1.66508L1.34258 8.78998L1.46633 9.17248L1.14008 8.93623L0.817578 9.17248L0.937578 8.78623L0.611328 8.54998H1.02008L1.14008 8.17123ZM3.42008 8.17123L3.54383 8.55373H3.94883L3.62258 8.78998L3.74633 9.17248L3.42008 8.93623L3.09383 9.17248L3.22133 8.78623L2.89508 8.54998H3.29258L3.42008 8.17123ZM5.70008 8.17123L5.82383 8.55373H6.22508L5.91008 8.78998L6.03383 9.17248L5.70758 8.93623L5.38133 9.17248L5.50508 8.78623L5.17883 8.54998H5.58383L5.70008 8.17123ZM7.98008 8.17123L8.10383 8.55373H8.50883L8.18258 8.78998L8.30633 9.17248L7.98008 8.93623L7.65383 9.17248L7.78133 8.78623L7.45133 8.54998H7.85258L7.98008 8.17123ZM10.2601 8.17123L10.3838 8.55373H10.7851L10.4626 8.78998L10.5863 9.17248L10.2601 8.93623L9.93383 9.17248L10.0576 8.78623L9.73508 8.54998H10.1363L10.2601 8.17123ZM12.5401 8.17123L12.6638 8.55373H13.0688L12.7388 8.78998L12.8663 9.17248L12.5401 8.93623L12.2138 9.17248L12.3413 8.78623L12.0113 8.54998H12.4163L12.5401 8.17123Z" fill="white"/>
<path fill-rule="evenodd" clip-rule="evenodd" d="M22 0.7H2C1.28203 0.7 0.7 1.28203 0.7 2V16C0.7 16.718 1.28203 17.3 2 17.3H22C22.718 17.3 23.3 16.718 23.3 16V2C23.3 1.28203 22.718 0.7 22 0.7ZM2 0C0.895431 0 0 0.89543 0 2V16C0 17.1046 0.89543 18 2 18H22C23.1046 18 24 17.1046 24 16V2C24 0.895431 23.1046 0 22 0H2Z" fill="#DFDFDF"/>
</svg>
